<svg width="311" height="76" viewBox="0 0 311 76" fill="none" xmlns="http://www.w3.org/2000/svg">
<path fill-rule="evenodd" clip-rule="evenodd" d="M37.499 5.27C46.1435 5.26239 54.4399 8.675 60.5771 14.7628C66.7143 20.8507 70.1938 29.1192 70.256 37.7635C70.3182 46.4077 66.958 54.7255 60.9091 60.901C54.8601 67.0766 46.6137 70.6082 37.97 70.725L53.079 43.44H63.366L68.936 33.38H43.077L37.507 43.44H47.161L32.28 70.312C24.9736 69.131 18.2831 65.5089 13.3 60.0365C8.31688 54.5642 5.33538 47.5646 4.84192 40.1799C4.34846 32.7951 6.37216 25.4611 10.5829 19.3744C14.7936 13.2877 20.9427 8.80756 28.027 6.665L13.233 33.38L7.663 43.44H33.52L39.09 33.38H19.151L34.651 5.395C35.592 5.314 36.54 5.27 37.502 5.27M37.502 0.5C44.9188 0.5 52.169 2.69934 58.3359 6.81989C64.5027 10.9404 69.3092 16.7971 72.1475 23.6494C74.9858 30.5016 75.7284 38.0416 74.2814 45.3159C72.8345 52.5902 69.263 59.272 64.0185 64.5165C58.774 69.761 52.0922 73.3325 44.8179 74.7794C37.5436 76.2264 30.0036 75.4838 23.1514 72.6455C16.2991 69.8072 10.4424 65.0007 6.32189 58.8339C2.20134 52.667 0.0019989 45.4168 0.0019989 38C0.00358974 28.0549 3.95498 18.5175 10.9873 11.4853C18.0195 4.45298 27.5569 0.501591 37.502 0.5Z" fill="#003E8B"/>
<path d="M105 0V75" stroke="#848484" stroke-opacity="0.5" stroke-miterlimit="10"/>
<path d="M195.441 33.823H203.141V6.977H210.279V1.063H188.302V6.977H195.44L195.441 33.823ZM172.57 16.505C173.37 15.987 178.44 12.749 178.44 7.916C178.44 2.658 173.74 0.5 169.095 0.5C160.688 0.5 159.185 5.991 159.185 8.2C159.185 11.72 162.38 14.911 162.801 15.334C157.165 18.149 156.978 22.514 156.978 24.439C156.978 30.071 161.158 34.389 168.342 34.389C171.208 34.389 174.354 33.544 176.233 31.289L178.11 33.823H186.191L180.979 26.97C183.565 23.7887 184.96 19.8047 184.923 15.705H178.442C178.509 17.8923 178.007 20.0596 176.986 21.995L172.57 16.505ZM172.852 27.252C172.358 27.8606 171.724 28.3407 171.005 28.6514C170.285 28.962 169.501 29.094 168.719 29.036C165.902 29.036 164.21 26.268 164.21 24.39C164.21 21.949 165.431 20.823 166.418 19.744L172.852 27.252ZM169 5.005C171.771 5.005 172.148 7.025 172.148 7.916C172.148 10.028 170.548 11.389 168.624 12.938C168.202 12.515 165.667 9.887 165.667 8.197C165.644 7.75956 165.716 7.3223 165.877 6.91505C166.038 6.50781 166.286 6.14015 166.602 5.83717C166.918 5.53419 167.296 5.30301 167.71 5.1594C168.124 5.01579 168.564 4.96312 169 5.005ZM135 33.824H153.55V27.91H142.702V1.063H135.002L135 33.824Z" fill="#08558C"/>
<mask id="mask0_1_6" style="mask-type:luminance" maskUnits="userSpaceOnUse" x="135" y="39" width="176" height="37">
<path fill-rule="evenodd" clip-rule="evenodd" d="M303.78 74.819V58.827C303.78 56.871 303.433 55.5343 302.738 54.817C302.264 54.4175 301.715 54.1167 301.123 53.9321C300.531 53.7475 299.908 53.6829 299.291 53.742C298.496 53.7291 297.709 53.9002 296.991 54.242C296.327 54.5642 295.742 55.0301 295.28 55.606C294.81 56.1981 294.456 56.8741 294.238 57.598C294.001 58.3886 293.884 59.2105 293.891 60.036V74.819H286.94V39.587H293.891V52.38C294.17 51.7791 294.559 51.2363 295.039 50.78C295.569 50.2647 296.173 49.8318 296.831 49.496C297.545 49.132 298.298 48.8502 299.076 48.656C299.914 48.444 300.776 48.3385 301.641 48.342C304.033 48.2367 306.381 49.0108 308.241 50.518C309.093 51.2708 309.764 52.2064 310.203 53.2549C310.643 54.3034 310.84 55.4376 310.78 56.573V74.819H303.78ZM284.907 65.486C284.751 66.9236 284.305 68.3148 283.598 69.576C282.919 70.7801 282.021 71.847 280.951 72.722C279.858 73.6096 278.62 74.3012 277.291 74.766C275.856 75.266 274.346 75.5144 272.827 75.5C271.157 75.52 269.497 75.2269 267.935 74.636C266.474 74.0721 265.165 73.1742 264.113 72.014C262.99 70.7523 262.144 69.2699 261.627 67.662C261.004 65.7054 260.706 63.66 260.744 61.607C260.701 59.5792 261 57.5587 261.627 55.63C262.132 54.0868 262.982 52.6791 264.113 51.514C265.206 50.4332 266.531 49.617 267.988 49.128C269.617 48.5859 271.325 48.3202 273.041 48.342C274.626 48.3236 276.205 48.5537 277.719 49.024C279.065 49.4449 280.318 50.1212 281.408 51.016C282.449 51.8775 283.297 52.9496 283.894 54.162C284.515 55.442 284.878 56.8317 284.963 58.252H277.963C277.846 57.0393 277.261 55.92 276.332 55.132C275.39 54.3682 274.204 53.968 272.992 54.004C272.28 53.9981 271.573 54.1228 270.906 54.372C270.247 54.6295 269.667 55.0541 269.222 55.604C268.687 56.2878 268.297 57.073 268.074 57.912C267.764 59.065 267.62 60.2563 267.646 61.45C267.646 64.2813 268.163 66.3783 269.196 67.741C269.584 68.3456 270.113 68.8474 270.736 69.2037C271.36 69.5599 272.061 69.76 272.779 69.787C274.028 69.821 275.252 69.4335 276.254 68.687C276.742 68.3021 277.142 67.8176 277.428 67.2658C277.714 66.714 277.879 66.1076 277.912 65.487L284.907 65.486ZM240.691 63.704C240.703 65.4152 241.318 67.0673 242.428 68.37C242.951 68.9418 243.593 69.3928 244.308 69.6916C245.024 69.9904 245.795 70.1297 246.57 70.1C247.627 70.1211 248.671 69.8587 249.592 69.34C250.001 69.1178 250.362 68.8151 250.651 68.4501C250.94 68.0851 251.153 67.6653 251.276 67.216H258.44C257.751 69.6868 256.242 71.85 254.162 73.351C252.026 74.8151 249.481 75.5669 246.892 75.499C238.123 75.499 233.739 70.8153 233.739 61.448C233.714 59.6123 234.003 57.7858 234.595 56.048C235.124 54.5082 235.971 53.0969 237.081 51.906C238.193 50.7355 239.554 49.8305 241.064 49.258C242.791 48.6182 244.623 48.3069 246.464 48.34C250.526 48.34 253.6 49.616 255.687 52.168C257.774 54.72 258.816 58.565 258.813 63.703L240.691 63.704ZM251.65 59.404C251.634 58.55 251.462 57.7061 251.142 56.914C250.871 56.2422 250.462 55.6346 249.942 55.13C249.452 54.6634 248.869 54.3062 248.231 54.082C247.596 53.8552 246.927 53.7395 246.253 53.74C245.581 53.7338 244.915 53.8634 244.295 54.1212C243.675 54.379 243.113 54.7595 242.644 55.24C241.571 56.3676 240.952 57.852 240.907 59.408L251.65 59.404ZM219.791 74.819V46.088H209.098V40.005H237.967V46.088H227.222V74.819H219.791ZM208.67 74.819V71.197C207.825 72.5886 206.618 73.7241 205.177 74.4816C203.736 75.2392 202.116 75.5902 200.491 75.497C199.255 75.513 198.028 75.2818 196.882 74.817C195.819 74.3777 194.862 73.7163 194.076 72.877C193.274 72.0089 192.648 70.9939 192.232 69.888C191.77 68.6474 191.543 67.3316 191.563 66.008V49.024H198.513V64.962C198.513 68.178 199.992 69.7856 202.95 69.785C203.705 69.8376 204.461 69.716 205.161 69.4295C205.861 69.1431 206.486 68.6994 206.987 68.133C207.928 66.9325 208.411 65.4361 208.349 63.912V49.024H215.249V74.824L208.67 74.819ZM181.832 74.819L181.779 71.673C181.017 72.9122 179.934 73.9221 178.644 74.5954C177.354 75.2686 175.906 75.5802 174.454 75.497C172.871 75.5168 171.302 75.1955 169.854 74.555C168.468 73.9298 167.243 72.9972 166.271 71.828C165.218 70.5396 164.42 69.0626 163.92 67.476C163.324 65.5949 163.035 63.63 163.064 61.657C163.045 59.8402 163.288 58.0302 163.786 56.283C164.218 54.7555 164.934 53.3234 165.898 52.062C166.8 50.8942 167.962 49.9527 169.291 49.312C170.721 48.6453 172.285 48.3136 173.863 48.342C175.398 48.3103 176.916 48.6631 178.279 49.3682C179.643 50.0733 180.808 51.1083 181.669 52.379V39.587H188.512V74.819H181.832ZM176.059 69.943C176.87 69.9511 177.671 69.7705 178.4 69.4154C179.129 69.0603 179.766 68.5405 180.259 67.897C181.436 66.3701 182.033 64.4748 181.943 62.549C181.943 56.9556 180 54.1593 176.115 54.16C172.124 54.16 170.129 56.8163 170.128 62.129C170.038 64.1398 170.621 66.1233 171.786 67.765C172.267 68.4484 172.908 69.0041 173.653 69.3838C174.397 69.7635 175.223 69.9548 176.059 69.943ZM135 74.819V40.005H161.091V46.088H142.217V53.532H159.591V59.667H142.217V68.632H161.944V74.819H135Z" fill="white"/>
</mask>
<g mask="url(#mask0_1_6)">
<path d="M310.783 39.587H135V75.501H310.783V39.587Z" fill="url(#paint0_linear_1_6)"/>
</g>
<defs>
<linearGradient id="paint0_linear_1_6" x1="135" y1="40" x2="173.261" y2="-18.9295" gradientUnits="userSpaceOnUse">
<stop stop-color="#16BEF0"/>
<stop offset="1" stop-color="#86BD2A"/>
</linearGradient>
</defs>
</svg>
