<svg width="514" height="23" viewBox="0 0 514 23" fill="none" xmlns="http://www.w3.org/2000/svg">
<path d="M4.55753 11.4545C4.55753 10.7685 4.72585 10.142 5.0625 9.57528C5.39915 9.00852 5.84872 8.55895 6.41122 8.22656C6.97798 7.88991 7.6044 7.72159 8.29048 7.72159C8.88707 7.72159 9.43892 7.85156 9.94602 8.11151C10.4531 8.36719 10.8729 8.71875 11.2053 9.16619C11.5376 9.61364 11.7401 10.1165 11.8125 10.6747H10.1506C10.0739 10.2784 9.85653 9.95455 9.49858 9.70312C9.14489 9.44744 8.74219 9.3196 8.29048 9.3196C7.89844 9.3196 7.54048 9.41548 7.21662 9.60724C6.89276 9.79901 6.63494 10.0568 6.44318 10.3807C6.25142 10.7003 6.15554 11.0582 6.15554 11.4545C6.15554 11.8466 6.25142 12.2045 6.44318 12.5284C6.63494 12.8523 6.89276 13.1101 7.21662 13.3018C7.54048 13.4936 7.89844 13.5895 8.29048 13.5895C8.74219 13.5895 9.12784 13.4638 9.44744 13.2124C9.76705 12.9567 9.96733 12.6307 10.0483 12.2344H11.7102C11.6378 12.7926 11.4439 13.2955 11.1286 13.7429C10.8132 14.1903 10.4105 14.544 9.92045 14.804C9.4304 15.0597 8.88707 15.1875 8.29048 15.1875C7.6044 15.1875 6.97798 15.0213 6.41122 14.6889C5.84872 14.3523 5.39915 13.9006 5.0625 13.3338C4.72585 12.767 4.55753 12.1406 4.55753 11.4545ZM8.23295 18.2045C7.30398 18.2045 6.4304 18.0298 5.61222 17.6804C4.7983 17.331 4.08026 16.8473 3.4581 16.2294C2.8402 15.6072 2.3544 14.8892 2.00071 14.0753C1.65128 13.2614 1.47869 12.3878 1.48295 11.4545C1.48722 10.5213 1.66406 9.64773 2.01349 8.83381C2.36719 8.01989 2.85298 7.30398 3.47088 6.68608C4.08878 6.06392 4.80469 5.57812 5.61861 5.22869C6.43253 4.87926 7.30398 4.70455 8.23295 4.70455C9.16619 4.70455 10.0398 4.87926 10.8537 5.22869C11.6719 5.57812 12.3878 6.06392 13.0014 6.68608C13.6193 7.30398 14.103 8.01989 14.4524 8.83381C14.8018 9.64773 14.9787 10.5213 14.983 11.4545C14.9872 12.3878 14.8146 13.2614 14.4652 14.0753C14.1158 14.8892 13.6321 15.6072 13.0142 16.2294C12.3963 16.8473 11.6783 17.331 10.8601 17.6804C10.0419 18.0298 9.16619 18.2045 8.23295 18.2045ZM8.23295 16.5043C8.93182 16.5043 9.58807 16.3743 10.2017 16.1143C10.8153 15.8544 11.3523 15.4943 11.8125 15.0341C12.277 14.5696 12.6392 14.0327 12.8991 13.4233C13.1591 12.8097 13.2869 12.1555 13.2827 11.4609C13.2827 10.7621 13.1506 10.1058 12.8864 9.49219C12.6264 8.87855 12.2642 8.34162 11.7997 7.88139C11.3395 7.4169 10.8047 7.05469 10.1953 6.79474C9.58594 6.5348 8.93182 6.40483 8.23295 6.40483C7.53835 6.40483 6.88636 6.5348 6.27699 6.79474C5.66761 7.05469 5.13068 7.4169 4.66619 7.88139C4.20597 8.34588 3.84375 8.88494 3.57955 9.49858C3.31534 10.108 3.18324 10.7621 3.18324 11.4609C3.17898 12.1513 3.30682 12.8033 3.56676 13.4169C3.83097 14.0263 4.19318 14.5632 4.65341 15.0277C5.1179 15.4879 5.65483 15.8501 6.2642 16.1143C6.87784 16.3743 7.53409 16.5043 8.23295 16.5043ZM22.4936 18V16.5682L26.9233 11.9787C27.3963 11.4801 27.7862 11.0433 28.093 10.6683C28.4041 10.2891 28.6364 9.92898 28.7898 9.58807C28.9432 9.24716 29.0199 8.88494 29.0199 8.50142C29.0199 8.06676 28.9176 7.69176 28.7131 7.37642C28.5085 7.05682 28.2294 6.81179 27.8757 6.64134C27.522 6.46662 27.1236 6.37926 26.6804 6.37926C26.2116 6.37926 25.8026 6.47514 25.4531 6.6669C25.1037 6.85866 24.8352 7.12926 24.6477 7.47869C24.4602 7.82812 24.3665 8.23722 24.3665 8.70597H22.4808C22.4808 7.90909 22.6641 7.21236 23.0305 6.61577C23.397 6.01918 23.8999 5.55682 24.5391 5.22869C25.1783 4.89631 25.9048 4.73011 26.7188 4.73011C27.5412 4.73011 28.2656 4.89418 28.892 5.2223C29.5227 5.54616 30.0149 5.98935 30.3686 6.55185C30.7223 7.11009 30.8991 7.74077 30.8991 8.44389C30.8991 8.92969 30.8075 9.40483 30.6243 9.86932C30.4453 10.3338 30.1321 10.8516 29.6847 11.4226C29.2372 11.9893 28.6151 12.6776 27.8182 13.4872L25.2166 16.2102V16.3061H31.1101V18H22.4936ZM38.0902 18.2173C37.0803 18.2131 36.2173 17.9467 35.5014 17.4183C34.7855 16.8899 34.2379 16.1207 33.8587 15.1108C33.4794 14.1009 33.2898 12.8842 33.2898 11.4609C33.2898 10.0419 33.4794 8.82955 33.8587 7.82386C34.2422 6.81818 34.7919 6.05114 35.5078 5.52273C36.228 4.99432 37.0888 4.73011 38.0902 4.73011C39.0916 4.73011 39.9503 4.99645 40.6662 5.52912C41.3821 6.05753 41.9297 6.82457 42.3089 7.83026C42.6925 8.83168 42.8842 10.0419 42.8842 11.4609C42.8842 12.8885 42.6946 14.1072 42.3153 15.1172C41.9361 16.1229 41.3885 16.892 40.6726 17.4247C39.9567 17.9531 39.0959 18.2173 38.0902 18.2173ZM38.0902 16.5107C38.9766 16.5107 39.669 16.0781 40.1676 15.2131C40.6705 14.348 40.9219 13.0973 40.9219 11.4609C40.9219 10.3743 40.8068 9.45597 40.5767 8.70597C40.3509 7.9517 40.0249 7.38068 39.5987 6.9929C39.1768 6.60085 38.674 6.40483 38.0902 6.40483C37.2081 6.40483 36.5156 6.83949 36.0128 7.70881C35.5099 8.57812 35.2564 9.82884 35.2521 11.4609C35.2521 12.5518 35.3651 13.4744 35.5909 14.2287C35.821 14.9787 36.147 15.5476 36.5689 15.9354C36.9908 16.3189 37.4979 16.5107 38.0902 16.5107ZM45.1518 18V16.5682L49.5815 11.9787C50.0545 11.4801 50.4444 11.0433 50.7512 10.6683C51.0623 10.2891 51.2946 9.92898 51.448 9.58807C51.6014 9.24716 51.6781 8.88494 51.6781 8.50142C51.6781 8.06676 51.5758 7.69176 51.3713 7.37642C51.1667 7.05682 50.8876 6.81179 50.5339 6.64134C50.1802 6.46662 49.7818 6.37926 49.3386 6.37926C48.8699 6.37926 48.4608 6.47514 48.1113 6.6669C47.7619 6.85866 47.4934 7.12926 47.3059 7.47869C47.1184 7.82812 47.0247 8.23722 47.0247 8.70597H45.139C45.139 7.90909 45.3223 7.21236 45.6887 6.61577C46.0552 6.01918 46.5581 5.55682 47.1973 5.22869C47.8365 4.89631 48.563 4.73011 49.377 4.73011C50.1994 4.73011 50.9238 4.89418 51.5502 5.2223C52.1809 5.54616 52.6731 5.98935 53.0268 6.55185C53.3805 7.11009 53.5574 7.74077 53.5574 8.44389C53.5574 8.92969 53.4657 9.40483 53.2825 9.86932C53.1035 10.3338 52.7903 10.8516 52.3429 11.4226C51.8954 11.9893 51.2733 12.6776 50.4764 13.4872L47.8748 16.2102V16.3061H53.7683V18H45.1518ZM60.7484 18.179C59.8706 18.179 59.0865 18.0277 58.3961 17.7251C57.71 17.4226 57.1667 17.0028 56.7662 16.4659C56.3699 15.9247 56.1568 15.2983 56.127 14.5866H58.1341C58.1596 14.9744 58.2896 15.3111 58.524 15.5966C58.7626 15.8778 59.0737 16.0952 59.4572 16.2486C59.8407 16.402 60.2669 16.4787 60.7356 16.4787C61.2512 16.4787 61.7072 16.3892 62.1035 16.2102C62.5041 16.0312 62.8173 15.782 63.0431 15.4624C63.269 15.1385 63.3819 14.7656 63.3819 14.3438C63.3819 13.9048 63.269 13.5192 63.0431 13.1868C62.8216 12.8501 62.4956 12.5859 62.0652 12.3942C61.639 12.2024 61.1234 12.1065 60.5183 12.1065H59.4125V10.4957H60.5183C61.0041 10.4957 61.4302 10.4084 61.7967 10.2337C62.1674 10.0589 62.4572 9.81605 62.666 9.50497C62.8748 9.18963 62.9792 8.82102 62.9792 8.39915C62.9792 7.99432 62.8876 7.64276 62.7044 7.34446C62.5254 7.0419 62.2697 6.8054 61.9373 6.63494C61.6092 6.46449 61.2214 6.37926 60.774 6.37926C60.3478 6.37926 59.9494 6.4581 59.5787 6.61577C59.2122 6.76918 58.9139 6.99077 58.6838 7.28054C58.4537 7.56605 58.3301 7.90909 58.313 8.30966H56.4018C56.4231 7.60227 56.6319 6.98011 57.0282 6.44318C57.4288 5.90625 57.9572 5.48651 58.6135 5.18395C59.2697 4.88139 59.9984 4.73011 60.7995 4.73011C61.639 4.73011 62.3635 4.89418 62.9728 5.2223C63.5865 5.54616 64.0595 5.97869 64.3919 6.51989C64.7285 7.06108 64.8947 7.65341 64.8904 8.29688C64.8947 9.02983 64.6902 9.65199 64.2768 10.1634C63.8677 10.6747 63.3223 11.0178 62.6404 11.1925V11.2947C63.5098 11.4268 64.1831 11.772 64.6603 12.3303C65.1419 12.8885 65.3805 13.581 65.3762 14.4077C65.3805 15.1278 65.1802 15.7734 64.7754 16.3445C64.3748 16.9155 63.8272 17.3651 63.1326 17.6932C62.438 18.017 61.6433 18.179 60.7484 18.179ZM72.7351 18V4.90909H74.7102V16.2997H80.642V18H72.7351ZM86.5515 18.1854C85.6737 18.1854 84.9173 18.0256 84.2823 17.706C83.6516 17.3864 83.1658 16.9517 82.8249 16.402C82.484 15.848 82.3136 15.2216 82.3136 14.5227C82.3136 13.9901 82.4244 13.517 82.646 13.1037C82.8675 12.6861 83.1765 12.3004 83.5728 11.9467C83.9691 11.593 84.4272 11.2372 84.9471 10.8793L87.0565 9.38991C87.4144 9.15554 87.6935 8.90838 87.8938 8.64844C88.0941 8.38423 88.1942 8.05824 88.1942 7.67045C88.1942 7.36364 88.0621 7.0696 87.7979 6.78835C87.5337 6.5071 87.18 6.36648 86.7369 6.36648C86.43 6.36648 86.1594 6.44105 85.9251 6.5902C85.695 6.73935 85.5138 6.93111 85.3817 7.16548C85.2539 7.3956 85.19 7.63849 85.19 7.89418C85.19 8.19247 85.271 8.4929 85.4329 8.79545C85.5991 9.09801 85.8121 9.41122 86.0721 9.73509C86.332 10.0547 86.6048 10.3871 86.8903 10.7322L92.9691 18H90.8086L85.7781 12.0874C85.3562 11.5888 84.9641 11.12 84.6019 10.6811C84.2397 10.2379 83.9457 9.79048 83.7198 9.33878C83.4982 8.88281 83.3874 8.39062 83.3874 7.86222C83.3874 7.26136 83.5238 6.72869 83.7965 6.2642C84.0735 5.79545 84.4592 5.42898 84.9535 5.16477C85.4478 4.90057 86.0273 4.76847 86.6921 4.76847C87.3654 4.76847 87.9428 4.90057 88.4244 5.16477C88.9102 5.42472 89.283 5.77202 89.543 6.20668C89.8072 6.63707 89.9393 7.10795 89.9393 7.61932C89.9393 8.24148 89.7837 8.79119 89.4727 9.26847C89.1658 9.74148 88.7418 10.1761 88.2006 10.5724L85.5735 12.5092C85.0621 12.8842 84.7063 13.255 84.506 13.6214C84.31 13.9837 84.212 14.267 84.212 14.4716C84.212 14.8466 84.3079 15.1939 84.4996 15.5135C84.6957 15.8331 84.9684 16.0888 85.3178 16.2805C85.6715 16.4723 86.0849 16.5682 86.5579 16.5682C87.0437 16.5682 87.5167 16.4638 87.9769 16.255C88.4414 16.0419 88.8612 15.7372 89.2362 15.3409C89.6154 14.9446 89.9158 14.4695 90.1374 13.9155C90.359 13.3615 90.4698 12.7415 90.4698 12.0554H92.1957C92.1957 12.8991 92.0998 13.6129 91.908 14.1967C91.7163 14.7763 91.484 15.2493 91.2113 15.6158C90.9428 15.978 90.6893 16.2614 90.4506 16.4659C90.3739 16.5341 90.3015 16.6023 90.2333 16.6705C90.1651 16.7386 90.0927 16.8068 90.016 16.875C89.5728 17.3224 89.0359 17.6527 88.4052 17.8658C87.7788 18.0788 87.1609 18.1854 86.5515 18.1854ZM92.9547 6.60938V4.90909H103.086V6.60938H99.0016V18H97.0328V6.60938H92.9547ZM110.089 18V4.90909H118.296V6.60938H112.064V10.598H117.868V12.2919H112.064V16.2997H118.373V18H110.089ZM124.456 18.1918C123.664 18.1918 122.956 17.9893 122.334 17.5845C121.716 17.1754 121.23 16.5937 120.877 15.8395C120.527 15.081 120.353 14.1712 120.353 13.1101C120.353 12.049 120.529 11.1413 120.883 10.3871C121.241 9.63281 121.731 9.0554 122.353 8.65483C122.975 8.25426 123.681 8.05398 124.469 8.05398C125.078 8.05398 125.569 8.15625 125.939 8.3608C126.314 8.56108 126.604 8.79545 126.809 9.06392C127.017 9.33239 127.179 9.56889 127.294 9.77344H127.409V4.90909H129.321V18H127.454V16.4723H127.294C127.179 16.6811 127.013 16.9197 126.796 17.1882C126.583 17.4567 126.289 17.6911 125.914 17.8913C125.539 18.0916 125.053 18.1918 124.456 18.1918ZM124.878 16.5618C125.428 16.5618 125.892 16.4169 126.272 16.1271C126.655 15.8331 126.945 15.4261 127.141 14.9062C127.341 14.3864 127.441 13.7812 127.441 13.0909C127.441 12.4091 127.343 11.8125 127.147 11.3011C126.951 10.7898 126.664 10.3913 126.284 10.1058C125.905 9.82031 125.436 9.67756 124.878 9.67756C124.303 9.67756 123.824 9.8267 123.44 10.125C123.056 10.4233 122.767 10.8303 122.571 11.3459C122.379 11.8615 122.283 12.4432 122.283 13.0909C122.283 13.7472 122.381 14.3374 122.577 14.8615C122.773 15.3857 123.063 15.8011 123.446 16.108C123.834 16.4105 124.311 16.5618 124.878 16.5618ZM138.268 13.9283V8.18182H140.186V18H138.306V16.2997H138.204C137.978 16.8239 137.616 17.2607 137.117 17.6101C136.623 17.9553 136.007 18.1278 135.27 18.1278C134.639 18.1278 134.081 17.9893 133.595 17.7124C133.114 17.4311 132.735 17.0156 132.458 16.4659C132.185 15.9162 132.048 15.2365 132.048 14.4268V8.18182H133.96V14.1967C133.96 14.8658 134.145 15.3984 134.516 15.7947C134.887 16.1911 135.368 16.3892 135.96 16.3892C136.318 16.3892 136.674 16.2997 137.028 16.1207C137.386 15.9418 137.682 15.6712 137.916 15.3089C138.155 14.9467 138.272 14.4865 138.268 13.9283ZM141.347 6.60938V4.90909H151.479V6.60938H147.394V18H145.425V6.60938H141.347ZM156.372 18.1982C155.404 18.1982 154.571 17.9915 153.873 17.5781C153.178 17.1605 152.641 16.5746 152.262 15.8203C151.887 15.0618 151.699 14.1733 151.699 13.1548C151.699 12.1491 151.887 11.2628 152.262 10.4957C152.641 9.72869 153.169 9.12997 153.847 8.69957C154.529 8.26918 155.326 8.05398 156.238 8.05398C156.792 8.05398 157.328 8.1456 157.848 8.32884C158.368 8.51207 158.835 8.79972 159.248 9.19176C159.662 9.58381 159.988 10.093 160.226 10.7195C160.465 11.3416 160.584 12.098 160.584 12.9886V13.6662H152.779V12.2344H158.711C158.711 11.7315 158.609 11.2862 158.404 10.8984C158.2 10.5064 157.912 10.1974 157.542 9.97159C157.175 9.74574 156.745 9.63281 156.25 9.63281C155.713 9.63281 155.245 9.76491 154.844 10.0291C154.448 10.2891 154.141 10.63 153.924 11.0518C153.711 11.4695 153.604 11.9233 153.604 12.4134V13.532C153.604 14.1882 153.719 14.7464 153.949 15.2067C154.184 15.6669 154.51 16.0185 154.927 16.2614C155.345 16.5 155.833 16.6193 156.391 16.6193C156.753 16.6193 157.083 16.5682 157.382 16.4659C157.68 16.3594 157.938 16.2017 158.155 15.9929C158.373 15.7841 158.539 15.5263 158.654 15.2195L160.463 15.5455C160.318 16.0781 160.058 16.5447 159.683 16.9453C159.312 17.3416 158.846 17.6506 158.283 17.8722C157.725 18.0895 157.088 18.1982 156.372 18.1982ZM166.84 18.1982C165.89 18.1982 165.072 17.983 164.386 17.5526C163.704 17.1179 163.18 16.5192 162.813 15.7564C162.447 14.9936 162.264 14.12 162.264 13.1357C162.264 12.1385 162.451 11.2585 162.826 10.4957C163.201 9.72869 163.73 9.12997 164.411 8.69957C165.093 8.26918 165.896 8.05398 166.821 8.05398C167.567 8.05398 168.232 8.19247 168.816 8.46946C169.399 8.74219 169.87 9.12571 170.228 9.62003C170.59 10.1143 170.806 10.6918 170.874 11.3523H169.014C168.911 10.892 168.677 10.4957 168.311 10.1634C167.948 9.83097 167.463 9.66477 166.853 9.66477C166.32 9.66477 165.854 9.8054 165.453 10.0866C165.057 10.3636 164.748 10.7599 164.526 11.2756C164.305 11.7869 164.194 12.392 164.194 13.0909C164.194 13.8068 164.303 14.4247 164.52 14.9446C164.737 15.4645 165.044 15.8672 165.441 16.1527C165.841 16.4382 166.312 16.581 166.853 16.581C167.215 16.581 167.544 16.5149 167.838 16.3828C168.136 16.2464 168.385 16.0526 168.585 15.8011C168.79 15.5497 168.933 15.2472 169.014 14.8935H170.874C170.806 15.5284 170.599 16.0952 170.254 16.5938C169.909 17.0923 169.446 17.4844 168.867 17.7699C168.291 18.0554 167.616 18.1982 166.84 18.1982ZM174.829 12.1705V18H172.918V4.90909H174.803V9.77983H174.925C175.155 9.25142 175.506 8.83168 175.979 8.5206C176.452 8.20952 177.07 8.05398 177.833 8.05398C178.506 8.05398 179.094 8.19247 179.597 8.46946C180.104 8.74645 180.496 9.1598 180.773 9.70952C181.055 10.255 181.195 10.9368 181.195 11.755V18H179.284V11.9851C179.284 11.2649 179.099 10.7067 178.728 10.3104C178.357 9.9098 177.842 9.70952 177.181 9.70952C176.729 9.70952 176.325 9.8054 175.967 9.99716C175.613 10.1889 175.334 10.4702 175.129 10.8409C174.929 11.2074 174.829 11.6506 174.829 12.1705ZM185.005 18.1214C184.656 18.1214 184.355 17.9979 184.104 17.7507C183.852 17.4993 183.727 17.1967 183.727 16.843C183.727 16.4936 183.852 16.1953 184.104 15.9482C184.355 15.6967 184.656 15.571 185.005 15.571C185.354 15.571 185.655 15.6967 185.906 15.9482C186.158 16.1953 186.283 16.4936 186.283 16.843C186.283 17.0774 186.224 17.2926 186.104 17.4886C185.989 17.6804 185.836 17.8338 185.644 17.9489C185.452 18.0639 185.239 18.1214 185.005 18.1214ZM194.655 18H192.559L197.27 4.90909H199.552L204.263 18H202.166L198.465 7.28693H198.363L194.655 18ZM195.007 12.8736H201.808V14.5355H195.007V12.8736ZM207.911 4.90909V18H206V4.90909H207.911ZM212.393 4.90909V18H210.482V4.90909H212.393ZM219.882 18V4.90909H224.548C225.562 4.90909 226.404 5.08381 227.073 5.43324C227.746 5.78267 228.249 6.26633 228.581 6.88423C228.914 7.49787 229.08 8.20739 229.08 9.01278C229.08 9.81392 228.911 10.5192 228.575 11.1286C228.242 11.7337 227.74 12.2045 227.066 12.5412C226.397 12.8778 225.556 13.0462 224.541 13.0462H221.007V11.3459H224.362C225.002 11.3459 225.521 11.2543 225.922 11.071C226.327 10.8878 226.623 10.6214 226.811 10.272C226.998 9.92258 227.092 9.50284 227.092 9.01278C227.092 8.51847 226.996 8.0902 226.804 7.72798C226.617 7.36577 226.32 7.08878 225.916 6.89702C225.515 6.70099 224.989 6.60298 224.337 6.60298H221.857V18H219.882ZM226.344 12.0938L229.578 18H227.328L224.158 12.0938H226.344ZM231.33 18V8.18182H233.241V18H231.33ZM232.295 6.6669C231.963 6.6669 231.677 6.55611 231.438 6.33452C231.204 6.10866 231.087 5.8402 231.087 5.52912C231.087 5.21378 231.204 4.94531 231.438 4.72372C231.677 4.49787 231.963 4.38494 232.295 4.38494C232.627 4.38494 232.911 4.49787 233.145 4.72372C233.384 4.94531 233.503 5.21378 233.503 5.52912C233.503 5.8402 233.384 6.10866 233.145 6.33452C232.911 6.55611 232.627 6.6669 232.295 6.6669ZM239.929 21.8864C239.149 21.8864 238.478 21.7841 237.915 21.5795C237.357 21.375 236.901 21.1044 236.547 20.7678C236.194 20.4311 235.929 20.0625 235.755 19.6619L237.397 18.9844C237.512 19.1719 237.666 19.37 237.858 19.5788C238.054 19.7919 238.318 19.973 238.65 20.1222C238.987 20.2713 239.419 20.3459 239.948 20.3459C240.672 20.3459 241.271 20.169 241.744 19.8153C242.217 19.4659 242.453 18.9077 242.453 18.1406V16.2102H242.332C242.217 16.419 242.051 16.6513 241.833 16.907C241.62 17.1626 241.326 17.3842 240.951 17.5717C240.576 17.7592 240.088 17.853 239.488 17.853C238.712 17.853 238.013 17.6719 237.391 17.3097C236.773 16.9432 236.283 16.4041 235.921 15.6925C235.563 14.9766 235.384 14.0966 235.384 13.0526C235.384 12.0085 235.561 11.1136 235.914 10.3679C236.272 9.62216 236.762 9.05114 237.385 8.65483C238.007 8.25426 238.712 8.05398 239.5 8.05398C240.11 8.05398 240.602 8.15625 240.977 8.3608C241.352 8.56108 241.644 8.79545 241.853 9.06392C242.066 9.33239 242.23 9.56889 242.345 9.77344H242.485V8.18182H244.358V18.2173C244.358 19.0611 244.162 19.7536 243.77 20.2947C243.378 20.8359 242.848 21.2365 242.179 21.4964C241.514 21.7564 240.764 21.8864 239.929 21.8864ZM239.909 16.2678C240.459 16.2678 240.924 16.1399 241.303 15.8842C241.686 15.6243 241.976 15.2536 242.172 14.772C242.373 14.2862 242.473 13.7045 242.473 13.027C242.473 12.3665 242.375 11.7848 242.179 11.282C241.983 10.7791 241.695 10.3871 241.316 10.1058C240.936 9.82031 240.468 9.67756 239.909 9.67756C239.334 9.67756 238.855 9.8267 238.471 10.125C238.088 10.419 237.798 10.8196 237.602 11.3267C237.41 11.8338 237.314 12.4006 237.314 13.027C237.314 13.6705 237.412 14.2351 237.608 14.7209C237.804 15.2067 238.094 15.5859 238.478 15.8587C238.865 16.1314 239.343 16.2678 239.909 16.2678ZM248.833 12.1705V18H246.922V4.90909H248.807V9.77983H248.929C249.159 9.25142 249.51 8.83168 249.983 8.5206C250.456 8.20952 251.074 8.05398 251.837 8.05398C252.51 8.05398 253.098 8.19247 253.601 8.46946C254.108 8.74645 254.5 9.1598 254.777 9.70952C255.059 10.255 255.199 10.9368 255.199 11.755V18H253.288V11.9851C253.288 11.2649 253.103 10.7067 252.732 10.3104C252.361 9.9098 251.846 9.70952 251.185 9.70952C250.733 9.70952 250.328 9.8054 249.971 9.99716C249.617 10.1889 249.338 10.4702 249.133 10.8409C248.933 11.2074 248.833 11.6506 248.833 12.1705ZM262.333 8.18182V9.71591H256.97V8.18182H262.333ZM258.408 5.82955H260.319V15.1172C260.319 15.4879 260.375 15.767 260.485 15.9545C260.596 16.1378 260.739 16.2635 260.914 16.3317C261.093 16.3956 261.287 16.4276 261.495 16.4276C261.649 16.4276 261.783 16.4169 261.898 16.3956C262.013 16.3743 262.103 16.3572 262.167 16.3445L262.512 17.9233C262.401 17.9659 262.243 18.0085 262.039 18.0511C261.834 18.098 261.578 18.1236 261.272 18.1278C260.769 18.1364 260.3 18.0469 259.865 17.8594C259.431 17.6719 259.079 17.3821 258.811 16.9901C258.542 16.598 258.408 16.1058 258.408 15.5135V5.82955ZM271.646 10.5788L269.914 10.8857C269.841 10.6641 269.726 10.4531 269.569 10.2528C269.415 10.0526 269.206 9.88849 268.942 9.76065C268.678 9.63281 268.348 9.56889 267.951 9.56889C267.41 9.56889 266.958 9.69034 266.596 9.93324C266.234 10.1719 266.053 10.4808 266.053 10.8601C266.053 11.1882 266.174 11.4524 266.417 11.6527C266.66 11.853 267.052 12.017 267.593 12.1449L269.153 12.5028C270.056 12.7116 270.73 13.0334 271.173 13.468C271.616 13.9027 271.838 14.4673 271.838 15.1619C271.838 15.75 271.667 16.2741 271.326 16.7344C270.99 17.1903 270.519 17.5483 269.914 17.8082C269.313 18.0682 268.616 18.1982 267.824 18.1982C266.724 18.1982 265.827 17.9638 265.132 17.495C264.438 17.022 264.012 16.3509 263.854 15.4815L265.701 15.2003C265.816 15.6818 266.053 16.0462 266.411 16.2933C266.769 16.5362 267.235 16.6577 267.811 16.6577C268.437 16.6577 268.938 16.5277 269.313 16.2678C269.688 16.0036 269.875 15.6818 269.875 15.3026C269.875 14.9957 269.76 14.7379 269.53 14.5291C269.304 14.3203 268.957 14.1626 268.488 14.0561L266.826 13.6918C265.91 13.483 265.233 13.1506 264.794 12.6946C264.359 12.2386 264.142 11.6612 264.142 10.9624C264.142 10.3828 264.304 9.87571 264.627 9.44105C264.951 9.00639 265.399 8.66761 265.97 8.42472C266.541 8.17756 267.195 8.05398 267.932 8.05398C268.993 8.05398 269.828 8.28409 270.438 8.74432C271.047 9.20028 271.45 9.81179 271.646 10.5788ZM278.856 18V4.90909H283.522C284.537 4.90909 285.378 5.08381 286.047 5.43324C286.721 5.78267 287.223 6.26633 287.556 6.88423C287.888 7.49787 288.054 8.20739 288.054 9.01278C288.054 9.81392 287.886 10.5192 287.549 11.1286C287.217 11.7337 286.714 12.2045 286.041 12.5412C285.372 12.8778 284.53 13.0462 283.516 13.0462H279.981V11.3459H283.337C283.976 11.3459 284.496 11.2543 284.897 11.071C285.301 10.8878 285.598 10.6214 285.785 10.272C285.973 9.92258 286.066 9.50284 286.066 9.01278C286.066 8.51847 285.971 8.0902 285.779 7.72798C285.591 7.36577 285.295 7.08878 284.89 6.89702C284.49 6.70099 283.963 6.60298 283.311 6.60298H280.831V18H278.856ZM285.319 12.0938L288.553 18H286.303L283.132 12.0938H285.319ZM294.413 18.1982C293.445 18.1982 292.612 17.9915 291.914 17.5781C291.219 17.1605 290.682 16.5746 290.303 15.8203C289.928 15.0618 289.74 14.1733 289.74 13.1548C289.74 12.1491 289.928 11.2628 290.303 10.4957C290.682 9.72869 291.21 9.12997 291.888 8.69957C292.57 8.26918 293.367 8.05398 294.279 8.05398C294.833 8.05398 295.369 8.1456 295.889 8.32884C296.409 8.51207 296.876 8.79972 297.289 9.19176C297.703 9.58381 298.029 10.093 298.267 10.7195C298.506 11.3416 298.625 12.098 298.625 12.9886V13.6662H290.82V12.2344H296.752C296.752 11.7315 296.65 11.2862 296.445 10.8984C296.241 10.5064 295.953 10.1974 295.583 9.97159C295.216 9.74574 294.786 9.63281 294.291 9.63281C293.754 9.63281 293.286 9.76491 292.885 10.0291C292.489 10.2891 292.182 10.63 291.965 11.0518C291.752 11.4695 291.645 11.9233 291.645 12.4134V13.532C291.645 14.1882 291.76 14.7464 291.99 15.2067C292.225 15.6669 292.551 16.0185 292.968 16.2614C293.386 16.5 293.874 16.6193 294.432 16.6193C294.794 16.6193 295.124 16.5682 295.423 16.4659C295.721 16.3594 295.979 16.2017 296.196 15.9929C296.414 15.7841 296.58 15.5263 296.695 15.2195L298.504 15.5455C298.359 16.0781 298.099 16.5447 297.724 16.9453C297.353 17.3416 296.887 17.6506 296.324 17.8722C295.766 18.0895 295.129 18.1982 294.413 18.1982ZM308.103 10.5788L306.371 10.8857C306.298 10.6641 306.183 10.4531 306.026 10.2528C305.872 10.0526 305.663 9.88849 305.399 9.76065C305.135 9.63281 304.805 9.56889 304.408 9.56889C303.867 9.56889 303.415 9.69034 303.053 9.93324C302.691 10.1719 302.51 10.4808 302.51 10.8601C302.51 11.1882 302.631 11.4524 302.874 11.6527C303.117 11.853 303.509 12.017 304.05 12.1449L305.61 12.5028C306.513 12.7116 307.187 13.0334 307.63 13.468C308.073 13.9027 308.295 14.4673 308.295 15.1619C308.295 15.75 308.124 16.2741 307.783 16.7344C307.447 17.1903 306.976 17.5483 306.371 17.8082C305.77 18.0682 305.073 18.1982 304.281 18.1982C303.181 18.1982 302.284 17.9638 301.589 17.495C300.895 17.022 300.469 16.3509 300.311 15.4815L302.158 15.2003C302.273 15.6818 302.51 16.0462 302.868 16.2933C303.226 16.5362 303.692 16.6577 304.268 16.6577C304.894 16.6577 305.395 16.5277 305.77 16.2678C306.145 16.0036 306.332 15.6818 306.332 15.3026C306.332 14.9957 306.217 14.7379 305.987 14.5291C305.761 14.3203 305.414 14.1626 304.945 14.0561L303.283 13.6918C302.367 13.483 301.69 13.1506 301.251 12.6946C300.816 12.2386 300.599 11.6612 300.599 10.9624C300.599 10.3828 300.761 9.87571 301.085 9.44105C301.408 9.00639 301.856 8.66761 302.427 8.42472C302.998 8.17756 303.652 8.05398 304.389 8.05398C305.45 8.05398 306.286 8.28409 306.895 8.74432C307.504 9.20028 307.907 9.81179 308.103 10.5788ZM314.628 18.1982C313.66 18.1982 312.827 17.9915 312.128 17.5781C311.434 17.1605 310.897 16.5746 310.518 15.8203C310.143 15.0618 309.955 14.1733 309.955 13.1548C309.955 12.1491 310.143 11.2628 310.518 10.4957C310.897 9.72869 311.425 9.12997 312.103 8.69957C312.785 8.26918 313.581 8.05398 314.493 8.05398C315.047 8.05398 315.584 8.1456 316.104 8.32884C316.624 8.51207 317.091 8.79972 317.504 9.19176C317.917 9.58381 318.243 10.093 318.482 10.7195C318.721 11.3416 318.84 12.098 318.84 12.9886V13.6662H311.035V12.2344H316.967C316.967 11.7315 316.865 11.2862 316.66 10.8984C316.456 10.5064 316.168 10.1974 315.797 9.97159C315.431 9.74574 315.001 9.63281 314.506 9.63281C313.969 9.63281 313.501 9.76491 313.1 10.0291C312.704 10.2891 312.397 10.63 312.18 11.0518C311.966 11.4695 311.86 11.9233 311.86 12.4134V13.532C311.86 14.1882 311.975 14.7464 312.205 15.2067C312.439 15.6669 312.765 16.0185 313.183 16.2614C313.601 16.5 314.089 16.6193 314.647 16.6193C315.009 16.6193 315.339 16.5682 315.638 16.4659C315.936 16.3594 316.194 16.2017 316.411 15.9929C316.628 15.7841 316.795 15.5263 316.91 15.2195L318.719 15.5455C318.574 16.0781 318.314 16.5447 317.939 16.9453C317.568 17.3416 317.101 17.6506 316.539 17.8722C315.981 18.0895 315.344 18.1982 314.628 18.1982ZM320.961 18V8.18182H322.808V9.74148H322.91C323.089 9.21307 323.404 8.79758 323.856 8.49503C324.312 8.18821 324.828 8.0348 325.403 8.0348C325.522 8.0348 325.663 8.03906 325.825 8.04759C325.991 8.05611 326.121 8.06676 326.215 8.07955V9.90767C326.138 9.88636 326.002 9.86293 325.806 9.83736C325.61 9.80753 325.414 9.79261 325.218 9.79261C324.766 9.79261 324.363 9.88849 324.01 10.0803C323.66 10.2678 323.383 10.5298 323.179 10.8665C322.974 11.1989 322.872 11.5781 322.872 12.0043V18H320.961ZM336.567 8.18182L333.006 18H330.961L327.394 8.18182H329.446L331.933 15.7372H332.035L334.515 8.18182H336.567ZM342.26 18.1982C341.293 18.1982 340.46 17.9915 339.761 17.5781C339.067 17.1605 338.53 16.5746 338.15 15.8203C337.775 15.0618 337.588 14.1733 337.588 13.1548C337.588 12.1491 337.775 11.2628 338.15 10.4957C338.53 9.72869 339.058 9.12997 339.736 8.69957C340.417 8.26918 341.214 8.05398 342.126 8.05398C342.68 8.05398 343.217 8.1456 343.737 8.32884C344.257 8.51207 344.724 8.79972 345.137 9.19176C345.55 9.58381 345.876 10.093 346.115 10.7195C346.354 11.3416 346.473 12.098 346.473 12.9886V13.6662H338.668V12.2344H344.6C344.6 11.7315 344.498 11.2862 344.293 10.8984C344.089 10.5064 343.801 10.1974 343.43 9.97159C343.064 9.74574 342.633 9.63281 342.139 9.63281C341.602 9.63281 341.133 9.76491 340.733 10.0291C340.336 10.2891 340.03 10.63 339.812 11.0518C339.599 11.4695 339.493 11.9233 339.493 12.4134V13.532C339.493 14.1882 339.608 14.7464 339.838 15.2067C340.072 15.6669 340.398 16.0185 340.816 16.2614C341.233 16.5 341.721 16.6193 342.28 16.6193C342.642 16.6193 342.972 16.5682 343.27 16.4659C343.569 16.3594 343.827 16.2017 344.044 15.9929C344.261 15.7841 344.427 15.5263 344.542 15.2195L346.351 15.5455C346.206 16.0781 345.947 16.5447 345.572 16.9453C345.201 17.3416 344.734 17.6506 344.172 17.8722C343.613 18.0895 342.976 18.1982 342.26 18.1982ZM352.269 18.1918C351.476 18.1918 350.769 17.9893 350.147 17.5845C349.529 17.1754 349.043 16.5937 348.689 15.8395C348.34 15.081 348.165 14.1712 348.165 13.1101C348.165 12.049 348.342 11.1413 348.696 10.3871C349.054 9.63281 349.544 9.0554 350.166 8.65483C350.788 8.25426 351.493 8.05398 352.282 8.05398C352.891 8.05398 353.381 8.15625 353.752 8.3608C354.127 8.56108 354.417 8.79545 354.621 9.06392C354.83 9.33239 354.992 9.56889 355.107 9.77344H355.222V4.90909H357.133V18H355.267V16.4723H355.107C354.992 16.6811 354.826 16.9197 354.608 17.1882C354.395 17.4567 354.101 17.6911 353.726 17.8913C353.351 18.0916 352.865 18.1918 352.269 18.1918ZM352.691 16.5618C353.24 16.5618 353.705 16.4169 354.084 16.1271C354.468 15.8331 354.757 15.4261 354.953 14.9062C355.154 14.3864 355.254 13.7812 355.254 13.0909C355.254 12.4091 355.156 11.8125 354.96 11.3011C354.764 10.7898 354.476 10.3913 354.097 10.1058C353.718 9.82031 353.249 9.67756 352.691 9.67756C352.115 9.67756 351.636 9.8267 351.252 10.125C350.869 10.4233 350.579 10.8303 350.383 11.3459C350.191 11.8615 350.096 12.4432 350.096 13.0909C350.096 13.7472 350.194 14.3374 350.39 14.8615C350.586 15.3857 350.875 15.8011 351.259 16.108C351.647 16.4105 352.124 16.5618 352.691 16.5618ZM361.12 18.1214C360.771 18.1214 360.47 17.9979 360.219 17.7507C359.968 17.4993 359.842 17.1967 359.842 16.843C359.842 16.4936 359.968 16.1953 360.219 15.9482C360.47 15.6967 360.771 15.571 361.12 15.571C361.47 15.571 361.77 15.6967 362.021 15.9482C362.273 16.1953 362.399 16.4936 362.399 16.843C362.399 17.0774 362.339 17.2926 362.22 17.4886C362.105 17.6804 361.951 17.8338 361.759 17.9489C361.568 18.0639 361.355 18.1214 361.12 18.1214Z" fill="#262626"/>
<path d="M395.438 18V4.90909H400.104C401.123 4.90909 401.967 5.09446 402.636 5.4652C403.305 5.83594 403.805 6.34304 404.138 6.98651C404.47 7.62571 404.636 8.34588 404.636 9.14702C404.636 9.95241 404.468 10.6768 404.131 11.3203C403.799 11.9595 403.296 12.4666 402.623 12.8416C401.954 13.2124 401.112 13.3977 400.098 13.3977H396.889V11.723H399.919C400.563 11.723 401.085 11.6122 401.485 11.3906C401.886 11.1648 402.18 10.858 402.367 10.4702C402.555 10.0824 402.648 9.64133 402.648 9.14702C402.648 8.6527 402.555 8.21378 402.367 7.83026C402.18 7.44673 401.884 7.14631 401.479 6.92898C401.078 6.71165 400.55 6.60298 399.893 6.60298H397.413V18H395.438ZM406.798 18V8.18182H408.646V9.74148H408.748C408.927 9.21307 409.242 8.79758 409.694 8.49503C410.15 8.18821 410.666 8.0348 411.241 8.0348C411.36 8.0348 411.501 8.03906 411.663 8.04759C411.829 8.05611 411.959 8.06676 412.053 8.07955V9.90767C411.976 9.88636 411.84 9.86293 411.644 9.83736C411.448 9.80753 411.252 9.79261 411.056 9.79261C410.604 9.79261 410.201 9.88849 409.847 10.0803C409.498 10.2678 409.221 10.5298 409.017 10.8665C408.812 11.1989 408.71 11.5781 408.71 12.0043V18H406.798ZM413.707 18V8.18182H415.618V18H413.707ZM414.672 6.6669C414.339 6.6669 414.054 6.55611 413.815 6.33452C413.581 6.10866 413.464 5.8402 413.464 5.52912C413.464 5.21378 413.581 4.94531 413.815 4.72372C414.054 4.49787 414.339 4.38494 414.672 4.38494C415.004 4.38494 415.288 4.49787 415.522 4.72372C415.761 4.94531 415.88 5.21378 415.88 5.52912C415.88 5.8402 415.761 6.10866 415.522 6.33452C415.288 6.55611 415.004 6.6669 414.672 6.6669ZM426.588 8.18182L423.028 18H420.982L417.416 8.18182H419.468L421.954 15.7372H422.056L424.536 8.18182H426.588ZM430.96 18.2173C430.338 18.2173 429.776 18.1023 429.273 17.8722C428.77 17.6378 428.372 17.299 428.078 16.8558C427.788 16.4126 427.643 15.8693 427.643 15.2259C427.643 14.6719 427.749 14.2159 427.963 13.858C428.176 13.5 428.463 13.2166 428.825 13.0078C429.188 12.799 429.593 12.6413 430.04 12.5348C430.487 12.4283 430.943 12.3473 431.408 12.2919C431.996 12.2237 432.473 12.1683 432.84 12.1257C433.206 12.0788 433.472 12.0043 433.639 11.902C433.805 11.7997 433.888 11.6335 433.888 11.4034V11.3587C433.888 10.8004 433.73 10.3679 433.415 10.0611C433.104 9.75426 432.639 9.60085 432.021 9.60085C431.378 9.60085 430.871 9.74361 430.5 10.0291C430.134 10.3104 429.88 10.6236 429.74 10.9688L427.943 10.5597C428.156 9.96307 428.468 9.48153 428.877 9.11506C429.29 8.74432 429.765 8.47585 430.302 8.30966C430.839 8.1392 431.404 8.05398 431.996 8.05398C432.388 8.05398 432.803 8.10085 433.242 8.1946C433.686 8.28409 434.099 8.45028 434.482 8.69318C434.87 8.93608 435.188 9.28338 435.435 9.73509C435.682 10.1825 435.806 10.7642 435.806 11.4801V18H433.939V16.6577H433.862C433.739 16.9048 433.553 17.1477 433.306 17.3864C433.059 17.625 432.742 17.8232 432.354 17.9808C431.966 18.1385 431.502 18.2173 430.96 18.2173ZM431.376 16.6832C431.904 16.6832 432.356 16.5788 432.731 16.37C433.11 16.1612 433.398 15.8885 433.594 15.5518C433.794 15.2109 433.894 14.8466 433.894 14.4588V13.1932C433.826 13.2614 433.694 13.3253 433.498 13.3849C433.306 13.4403 433.087 13.4893 432.84 13.532C432.593 13.5703 432.352 13.6065 432.117 13.6406C431.883 13.6705 431.687 13.696 431.529 13.7173C431.159 13.7642 430.82 13.843 430.513 13.9538C430.21 14.0646 429.968 14.2244 429.784 14.4332C429.605 14.6378 429.516 14.9105 429.516 15.2514C429.516 15.7244 429.691 16.0824 430.04 16.3253C430.389 16.5639 430.835 16.6832 431.376 16.6832ZM442.487 18.1982C441.537 18.1982 440.718 17.983 440.032 17.5526C439.35 17.1179 438.826 16.5192 438.46 15.7564C438.093 14.9936 437.91 14.12 437.91 13.1357C437.91 12.1385 438.098 11.2585 438.473 10.4957C438.848 9.72869 439.376 9.12997 440.058 8.69957C440.74 8.26918 441.543 8.05398 442.468 8.05398C443.213 8.05398 443.878 8.19247 444.462 8.46946C445.046 8.74219 445.517 9.12571 445.875 9.62003C446.237 10.1143 446.452 10.6918 446.52 11.3523H444.66C444.558 10.892 444.324 10.4957 443.957 10.1634C443.595 9.83097 443.109 9.66477 442.5 9.66477C441.967 9.66477 441.5 9.8054 441.1 10.0866C440.703 10.3636 440.395 10.7599 440.173 11.2756C439.951 11.7869 439.841 12.392 439.841 13.0909C439.841 13.8068 439.949 14.4247 440.167 14.9446C440.384 15.4645 440.691 15.8672 441.087 16.1527C441.488 16.4382 441.958 16.581 442.5 16.581C442.862 16.581 443.19 16.5149 443.484 16.3828C443.782 16.2464 444.032 16.0526 444.232 15.8011C444.436 15.5497 444.579 15.2472 444.66 14.8935H446.52C446.452 15.5284 446.245 16.0952 445.9 16.5938C445.555 17.0923 445.093 17.4844 444.513 17.7699C443.938 18.0554 443.262 18.1982 442.487 18.1982ZM449.772 21.6818C449.487 21.6818 449.227 21.6584 448.992 21.6115C448.758 21.5689 448.583 21.522 448.468 21.4709L448.928 19.9048C449.278 19.9986 449.589 20.0391 449.862 20.0263C450.134 20.0135 450.375 19.9112 450.584 19.7195C450.797 19.5277 450.985 19.2145 451.146 18.7798L451.383 18.1278L447.791 8.18182H449.836L452.323 15.8011H452.425L454.911 8.18182H456.963L452.917 19.3104C452.73 19.8217 452.491 20.2543 452.201 20.608C451.911 20.9659 451.566 21.2344 451.166 21.4134C450.765 21.5923 450.301 21.6818 449.772 21.6818ZM463.676 18V4.90909H468.343C469.361 4.90909 470.205 5.09446 470.874 5.4652C471.543 5.83594 472.044 6.34304 472.376 6.98651C472.708 7.62571 472.875 8.34588 472.875 9.14702C472.875 9.95241 472.706 10.6768 472.37 11.3203C472.037 11.9595 471.534 12.4666 470.861 12.8416C470.192 13.2124 469.35 13.3977 468.336 13.3977H465.127V11.723H468.157C468.801 11.723 469.323 11.6122 469.723 11.3906C470.124 11.1648 470.418 10.858 470.605 10.4702C470.793 10.0824 470.887 9.64133 470.887 9.14702C470.887 8.6527 470.793 8.21378 470.605 7.83026C470.418 7.44673 470.122 7.14631 469.717 6.92898C469.316 6.71165 468.788 6.60298 468.132 6.60298H465.652V18H463.676ZM479.049 18.1982C478.129 18.1982 477.326 17.9872 476.64 17.5653C475.953 17.1435 475.421 16.5533 475.042 15.7947C474.662 15.0362 474.473 14.1499 474.473 13.1357C474.473 12.1172 474.662 11.2266 475.042 10.4638C475.421 9.70099 475.953 9.10866 476.64 8.68679C477.326 8.26491 478.129 8.05398 479.049 8.05398C479.97 8.05398 480.773 8.26491 481.459 8.68679C482.145 9.10866 482.678 9.70099 483.057 10.4638C483.436 11.2266 483.626 12.1172 483.626 13.1357C483.626 14.1499 483.436 15.0362 483.057 15.7947C482.678 16.5533 482.145 17.1435 481.459 17.5653C480.773 17.9872 479.97 18.1982 479.049 18.1982ZM479.056 16.5938C479.652 16.5938 480.147 16.4361 480.539 16.1207C480.931 15.8054 481.221 15.3857 481.408 14.8615C481.6 14.3374 481.696 13.7599 481.696 13.1293C481.696 12.5028 481.6 11.9276 481.408 11.4034C481.221 10.875 480.931 10.451 480.539 10.1314C480.147 9.81179 479.652 9.65199 479.056 9.65199C478.455 9.65199 477.956 9.81179 477.56 10.1314C477.168 10.451 476.876 10.875 476.684 11.4034C476.497 11.9276 476.403 12.5028 476.403 13.1293C476.403 13.7599 476.497 14.3374 476.684 14.8615C476.876 15.3857 477.168 15.8054 477.56 16.1207C477.956 16.4361 478.455 16.5938 479.056 16.5938ZM487.671 4.90909V18H485.759V4.90909H487.671ZM490.242 18V8.18182H492.153V18H490.242ZM491.207 6.6669C490.875 6.6669 490.589 6.55611 490.35 6.33452C490.116 6.10866 489.999 5.8402 489.999 5.52912C489.999 5.21378 490.116 4.94531 490.35 4.72372C490.589 4.49787 490.875 4.38494 491.207 4.38494C491.539 4.38494 491.823 4.49787 492.057 4.72372C492.296 4.94531 492.415 5.21378 492.415 5.52912C492.415 5.8402 492.296 6.10866 492.057 6.33452C491.823 6.55611 491.539 6.6669 491.207 6.6669ZM498.86 18.1982C497.91 18.1982 497.091 17.983 496.405 17.5526C495.724 17.1179 495.199 16.5192 494.833 15.7564C494.466 14.9936 494.283 14.12 494.283 13.1357C494.283 12.1385 494.471 11.2585 494.846 10.4957C495.221 9.72869 495.749 9.12997 496.431 8.69957C497.113 8.26918 497.916 8.05398 498.841 8.05398C499.586 8.05398 500.251 8.19247 500.835 8.46946C501.419 8.74219 501.89 9.12571 502.248 9.62003C502.61 10.1143 502.825 10.6918 502.893 11.3523H501.033C500.931 10.892 500.697 10.4957 500.33 10.1634C499.968 9.83097 499.482 9.66477 498.873 9.66477C498.34 9.66477 497.873 9.8054 497.473 10.0866C497.077 10.3636 496.768 10.7599 496.546 11.2756C496.324 11.7869 496.214 12.392 496.214 13.0909C496.214 13.8068 496.322 14.4247 496.54 14.9446C496.757 15.4645 497.064 15.8672 497.46 16.1527C497.861 16.4382 498.331 16.581 498.873 16.581C499.235 16.581 499.563 16.5149 499.857 16.3828C500.155 16.2464 500.405 16.0526 500.605 15.8011C500.809 15.5497 500.952 15.2472 501.033 14.8935H502.893C502.825 15.5284 502.618 16.0952 502.273 16.5938C501.928 17.0923 501.466 17.4844 500.886 17.7699C500.311 18.0554 499.635 18.1982 498.86 18.1982ZM506.145 21.6818C505.86 21.6818 505.6 21.6584 505.365 21.6115C505.131 21.5689 504.956 21.522 504.841 21.4709L505.301 19.9048C505.651 19.9986 505.962 20.0391 506.235 20.0263C506.507 20.0135 506.748 19.9112 506.957 19.7195C507.17 19.5277 507.358 19.2145 507.52 18.7798L507.756 18.1278L504.164 8.18182H506.209L508.696 15.8011H508.798L511.284 8.18182H513.336L509.29 19.3104C509.103 19.8217 508.864 20.2543 508.574 20.608C508.284 20.9659 507.939 21.2344 507.539 21.4134C507.138 21.5923 506.674 21.6818 506.145 21.6818Z" fill="#262626"/>
<line x1="379.5" y1="1" x2="379.5" y2="23" stroke="#262626"/>
</svg>
