<svg width="24" height="25" viewBox="0 0 24 25" fill="none" xmlns="http://www.w3.org/2000/svg">
<path d="M20.4 14.5231H22.8C23.1183 14.5231 23.4235 14.3969 23.6485 14.1723C23.8736 13.9477 24 13.643 24 13.3253C24 13.0076 23.8736 12.703 23.6485 12.4784C23.4235 12.2537 23.1183 12.1275 22.8 12.1275H20.4V10.9298C20.3894 10.378 20.3046 9.83007 20.148 9.30077C21.276 8.86912 22.2471 8.10767 22.9344 7.11605C23.6217 6.12443 23.9931 4.94883 24 3.74306C24 3.42539 23.8736 3.12073 23.6485 2.89611C23.4235 2.67148 23.1183 2.54528 22.8 2.54528C22.4817 2.54528 22.1765 2.67148 21.9515 2.89611C21.7264 3.12073 21.6 3.42539 21.6 3.74306C21.5989 4.51545 21.3486 5.26693 20.886 5.88613C20.4235 6.50533 19.7733 6.95928 19.032 7.1807C18.4402 6.42367 17.6747 5.81978 16.8 5.41996C16.8124 5.2605 16.8124 5.10031 16.8 4.94085C16.8 3.67016 16.2943 2.45152 15.3941 1.55301C14.4939 0.654497 13.273 0.149719 12 0.149719C10.727 0.149719 9.50606 0.654497 8.60589 1.55301C7.70571 2.45152 7.2 3.67016 7.2 4.94085C7.18758 5.10031 7.18758 5.2605 7.2 5.41996C6.30794 5.81321 5.52535 6.41756 4.92 7.1807C4.18761 6.9508 3.54804 6.49322 3.09468 5.87477C2.64131 5.25632 2.39791 4.50939 2.4 3.74306C2.4 3.42539 2.27357 3.12073 2.04853 2.89611C1.82348 2.67148 1.51826 2.54528 1.2 2.54528C0.88174 2.54528 0.576515 2.67148 0.351472 2.89611C0.126428 3.12073 0 3.42539 0 3.74306C0.00691938 4.94883 0.378318 6.12443 1.0656 7.11605C1.75288 8.10767 2.72404 8.86912 3.852 9.30077C3.69537 9.83007 3.61061 10.378 3.6 10.9298V12.1275H1.2C0.88174 12.1275 0.576515 12.2537 0.351472 12.4784C0.126428 12.703 0 13.0076 0 13.3253C0 13.643 0.126428 13.9477 0.351472 14.1723C0.576515 14.3969 0.88174 14.5231 1.2 14.5231H3.6V15.7209C3.60104 16.2761 3.65731 16.8298 3.768 17.3738C2.65954 17.8172 1.70884 18.5807 1.03759 19.5665C0.366334 20.5523 0.00505885 21.7156 0 22.9076C0 23.2252 0.126428 23.5299 0.351472 23.7545C0.576515 23.9792 0.88174 24.1054 1.2 24.1054C1.51826 24.1054 1.82348 23.9792 2.04853 23.7545C2.27357 23.5299 2.4 23.2252 2.4 22.9076C2.40324 22.209 2.61042 21.5265 2.99617 20.9436C3.38193 20.3608 3.92954 19.9027 4.572 19.6257C5.28565 20.9746 6.35449 22.1037 7.6634 22.8913C8.9723 23.6788 10.4717 24.095 12 24.095C13.5283 24.095 15.0277 23.6788 16.3366 22.8913C17.6455 22.1037 18.7144 20.9746 19.428 19.6257C20.0705 19.9027 20.6181 20.3608 21.0038 20.9436C21.3896 21.5265 21.5968 22.209 21.6 22.9076C21.6 23.2252 21.7264 23.5299 21.9515 23.7545C22.1765 23.9792 22.4817 24.1054 22.8 24.1054C23.1183 24.1054 23.4235 23.9792 23.6485 23.7545C23.8736 23.5299 24 23.2252 24 22.9076C23.9949 21.7156 23.6337 20.5523 22.9624 19.5665C22.2912 18.5807 21.3405 17.8172 20.232 17.3738C20.3427 16.8298 20.399 16.2761 20.4 15.7209V14.5231ZM10.8 21.59C9.44476 21.3139 8.22673 20.5789 7.35203 19.5094C6.47734 18.4398 5.99972 17.1015 6 15.7209V10.9298C6 9.97674 6.37928 9.06276 7.05442 8.38888C7.72955 7.71499 8.64522 7.33641 9.6 7.33641H10.8V21.59ZM9.6 4.94085C9.6 4.3055 9.85286 3.69618 10.3029 3.24693C10.753 2.79767 11.3635 2.54528 12 2.54528C12.6365 2.54528 13.247 2.79767 13.6971 3.24693C14.1471 3.69618 14.4 4.3055 14.4 4.94085H9.6ZM18 15.7209C18.0003 17.1015 17.5227 18.4398 16.648 19.5094C15.7733 20.5789 14.5552 21.3139 13.2 21.59V7.33641H14.4C15.3548 7.33641 16.2705 7.71499 16.9456 8.38888C17.6207 9.06276 18 9.97674 18 10.9298V15.7209Z" fill="#848484"/>
</svg>
