<svg width="24" height="25" viewBox="0 0 24 25" fill="none" xmlns="http://www.w3.org/2000/svg">
<path d="M20.4 7.33641H19.2V3.74306C19.2 2.79005 18.8207 1.87607 18.1456 1.20219C17.4705 0.528303 16.5548 0.149719 15.6 0.149719H3.6C2.64522 0.149719 1.72955 0.528303 1.05442 1.20219C0.379285 1.87607 0 2.79005 0 3.74306V18.1164C0.00118258 18.3529 0.0724654 18.5837 0.204865 18.7798C0.337265 18.9759 0.524857 19.1285 0.744 19.2184C0.886415 19.2855 1.04259 19.3183 1.2 19.3142C1.35793 19.3151 1.51448 19.2849 1.66069 19.2253C1.80689 19.1657 1.93987 19.0779 2.052 18.9669L5.424 15.5891H7.2V17.3139C7.2 18.2669 7.57928 19.1809 8.25442 19.8548C8.92955 20.5287 9.84522 20.9073 10.8 20.9073H19.104L21.948 23.758C22.0601 23.869 22.1931 23.9568 22.3393 24.0164C22.4855 24.076 22.6421 24.1063 22.8 24.1053C22.9574 24.1094 23.1136 24.0766 23.256 24.0095C23.4751 23.9197 23.6627 23.7671 23.7951 23.571C23.9275 23.3749 23.9988 23.144 24 22.9076V10.9298C24 9.97674 23.6207 9.06276 22.9456 8.38887C22.2705 7.71499 21.3548 7.33641 20.4 7.33641ZM7.2 10.9298V13.1936H4.932C4.77407 13.1926 4.61752 13.2229 4.47131 13.2825C4.32511 13.3421 4.19213 13.4299 4.08 13.5409L2.4 15.2298V3.74306C2.4 3.42539 2.52643 3.12073 2.75147 2.8961C2.97652 2.67148 3.28174 2.54528 3.6 2.54528H15.6C15.9183 2.54528 16.2235 2.67148 16.4485 2.8961C16.6736 3.12073 16.8 3.42539 16.8 3.74306V7.33641H10.8C9.84522 7.33641 8.92955 7.71499 8.25442 8.38887C7.57928 9.06276 7.2 9.97674 7.2 10.9298ZM21.6 20.0209L20.4 18.8231C20.2889 18.71 20.1563 18.6199 20.0101 18.5582C19.8638 18.4966 19.7068 18.4645 19.548 18.4638H10.8C10.4817 18.4638 10.1765 18.3376 9.95147 18.113C9.72643 17.8883 9.6 17.5837 9.6 17.266V10.9298C9.6 10.6121 9.72643 10.3074 9.95147 10.0828C10.1765 9.85817 10.4817 9.73197 10.8 9.73197H20.4C20.7183 9.73197 21.0235 9.85817 21.2485 10.0828C21.4736 10.3074 21.6 10.6121 21.6 10.9298V20.0209Z" fill="#848484"/>
</svg>
