<svg width="44" height="25" viewBox="0 0 44 25" fill="none" xmlns="http://www.w3.org/2000/svg">
<path d="M20.4 14.5231H22.8C23.1183 14.5231 23.4235 14.3969 23.6485 14.1723C23.8736 13.9477 24 13.643 24 13.3253C24 13.0076 23.8736 12.703 23.6485 12.4784C23.4235 12.2537 23.1183 12.1275 22.8 12.1275H20.4V10.9298C20.3894 10.378 20.3046 9.83007 20.148 9.30077C21.276 8.86912 22.2471 8.10767 22.9344 7.11605C23.6217 6.12443 23.9931 4.94883 24 3.74306C24 3.42539 23.8736 3.12073 23.6485 2.89611C23.4235 2.67148 23.1183 2.54528 22.8 2.54528C22.4817 2.54528 22.1765 2.67148 21.9515 2.89611C21.7264 3.12073 21.6 3.42539 21.6 3.74306C21.5989 4.51545 21.3486 5.26693 20.886 5.88613C20.4235 6.50533 19.7733 6.95928 19.032 7.1807C18.4402 6.42367 17.6747 5.81978 16.8 5.41996C16.8124 5.2605 16.8124 5.10031 16.8 4.94085C16.8 3.67016 16.2943 2.45152 15.3941 1.55301C14.4939 0.654497 13.273 0.149719 12 0.149719C10.727 0.149719 9.50606 0.654497 8.60589 1.55301C7.70571 2.45152 7.2 3.67016 7.2 4.94085C7.18758 5.10031 7.18758 5.2605 7.2 5.41996C6.30794 5.81321 5.52535 6.41756 4.92 7.1807C4.18761 6.9508 3.54804 6.49322 3.09468 5.87477C2.64131 5.25632 2.39791 4.50939 2.4 3.74306C2.4 3.42539 2.27357 3.12073 2.04853 2.89611C1.82348 2.67148 1.51826 2.54528 1.2 2.54528C0.88174 2.54528 0.576515 2.67148 0.351472 2.89611C0.126428 3.12073 0 3.42539 0 3.74306C0.00691938 4.94883 0.378318 6.12443 1.0656 7.11605C1.75288 8.10767 2.72404 8.86912 3.852 9.30077C3.69537 9.83007 3.61061 10.378 3.6 10.9298V12.1275H1.2C0.88174 12.1275 0.576515 12.2537 0.351472 12.4784C0.126428 12.703 0 13.0076 0 13.3253C0 13.643 0.126428 13.9477 0.351472 14.1723C0.576515 14.3969 0.88174 14.5231 1.2 14.5231H3.6V15.7209C3.60104 16.2761 3.65731 16.8298 3.768 17.3738C2.65954 17.8172 1.70884 18.5807 1.03759 19.5665C0.366334 20.5523 0.00505885 21.7156 0 22.9076C0 23.2252 0.126428 23.5299 0.351472 23.7545C0.576515 23.9792 0.88174 24.1054 1.2 24.1054C1.51826 24.1054 1.82348 23.9792 2.04853 23.7545C2.27357 23.5299 2.4 23.2252 2.4 22.9076C2.40324 22.209 2.61042 21.5265 2.99617 20.9436C3.38193 20.3608 3.92954 19.9027 4.572 19.6257C5.28565 20.9746 6.35449 22.1037 7.6634 22.8913C8.9723 23.6788 10.4717 24.095 12 24.095C13.5283 24.095 15.0277 23.6788 16.3366 22.8913C17.6455 22.1037 18.7144 20.9746 19.428 19.6257C20.0705 19.9027 20.6181 20.3608 21.0038 20.9436C21.3896 21.5265 21.5968 22.209 21.6 22.9076C21.6 23.2252 21.7264 23.5299 21.9515 23.7545C22.1765 23.9792 22.4817 24.1054 22.8 24.1054C23.1183 24.1054 23.4235 23.9792 23.6485 23.7545C23.8736 23.5299 24 23.2252 24 22.9076C23.9949 21.7156 23.6337 20.5523 22.9624 19.5665C22.2912 18.5807 21.3405 17.8172 20.232 17.3738C20.3427 16.8298 20.399 16.2761 20.4 15.7209V14.5231ZM10.8 21.59C9.44476 21.3139 8.22673 20.5789 7.35203 19.5094C6.47734 18.4398 5.99972 17.1015 6 15.7209V10.9298C6 9.97674 6.37928 9.06276 7.05442 8.38888C7.72955 7.71499 8.64522 7.33641 9.6 7.33641H10.8V21.59ZM9.6 4.94085C9.6 4.3055 9.85286 3.69618 10.3029 3.24693C10.753 2.79767 11.3635 2.54528 12 2.54528C12.6365 2.54528 13.247 2.79767 13.6971 3.24693C14.1471 3.69618 14.4 4.3055 14.4 4.94085H9.6ZM18 15.7209C18.0003 17.1015 17.5227 18.4398 16.648 19.5094C15.7733 20.5789 14.5552 21.3139 13.2 21.59V7.33641H14.4C15.3548 7.33641 16.2705 7.71499 16.9456 8.38888C17.6207 9.06276 18 9.97674 18 10.9298V15.7209Z" fill="#848484"/>
<rect x="15" y="2" width="28" height="19" rx="9.5" fill="#EF2917"/>
<path d="M24.8988 16.1193C24.2965 16.1193 23.7596 16.0085 23.288 15.7869C22.8192 15.5653 22.4471 15.2599 22.1715 14.8707C21.896 14.4815 21.7525 14.0355 21.7411 13.5327H23.5309C23.5508 13.8707 23.6928 14.1449 23.957 14.3551C24.2212 14.5653 24.5352 14.6705 24.8988 14.6705C25.1886 14.6705 25.4442 14.6065 25.6658 14.4787C25.8903 14.348 26.065 14.1676 26.19 13.9375C26.3178 13.7045 26.3817 13.4375 26.3817 13.1364C26.3817 12.8295 26.3164 12.5597 26.1857 12.3267C26.0579 12.0937 25.8803 11.9119 25.6531 11.7812C25.4258 11.6506 25.1658 11.5838 24.8732 11.581C24.6175 11.581 24.369 11.6335 24.1275 11.7386C23.8888 11.8437 23.7028 11.9872 23.5692 12.169L21.9286 11.875L22.342 7.27273H27.6772V8.78125H23.8633L23.6374 10.9673H23.6886C23.842 10.7514 24.0735 10.5724 24.3832 10.4304C24.6928 10.2884 25.0394 10.2173 25.4229 10.2173C25.9485 10.2173 26.4173 10.3409 26.8292 10.5881C27.2411 10.8352 27.5664 11.1747 27.805 11.6065C28.0437 12.0355 28.1616 12.5298 28.1587 13.0895C28.1616 13.6776 28.0252 14.2003 27.7496 14.6577C27.4769 15.1122 27.0948 15.4702 26.6033 15.7315C26.1147 15.9901 25.5465 16.1193 24.8988 16.1193ZM32.8675 16.1918C32.1346 16.1889 31.5039 16.0085 30.9755 15.6506C30.4499 15.2926 30.0451 14.7741 29.761 14.0952C29.4798 13.4162 29.3406 12.5994 29.3434 11.6449C29.3434 10.6932 29.484 9.8821 29.7653 9.21165C30.0494 8.54119 30.4542 8.03125 30.9798 7.68182C31.5082 7.32955 32.1374 7.15341 32.8675 7.15341C33.5977 7.15341 34.2255 7.32955 34.7511 7.68182C35.2795 8.03409 35.6857 8.54545 35.9698 9.21591C36.2539 9.88352 36.3945 10.6932 36.3917 11.6449C36.3917 12.6023 36.2496 13.4205 35.9656 14.0994C35.6843 14.7784 35.2809 15.2969 34.7553 15.6548C34.2298 16.0128 33.6005 16.1918 32.8675 16.1918ZM32.8675 14.6619C33.3675 14.6619 33.7667 14.4105 34.065 13.9077C34.3633 13.4048 34.511 12.6506 34.5082 11.6449C34.5082 10.983 34.44 10.4318 34.3036 9.99148C34.1701 9.55114 33.9798 9.22017 33.7326 8.99858C33.4883 8.77699 33.1999 8.66619 32.8675 8.66619C32.3704 8.66619 31.9727 8.91477 31.6744 9.41193C31.3761 9.90909 31.2255 10.6534 31.2227 11.6449C31.2227 12.3153 31.2894 12.875 31.4229 13.3239C31.5593 13.7699 31.7511 14.1051 31.9982 14.3295C32.2454 14.5511 32.5352 14.6619 32.8675 14.6619Z" fill="white"/>
<rect x="15" y="2" width="28" height="19" rx="9.5" stroke="white" stroke-width="2"/>
</svg>
