<svg width="162" height="40" viewBox="0 0 162 40" fill="none" xmlns="http://www.w3.org/2000/svg">
<path fill-rule="evenodd" clip-rule="evenodd" d="M19.435 2.79198C23.9155 2.78795 28.2155 4.5959 31.3965 7.82116C34.5774 11.0464 36.3809 15.427 36.4131 20.0066C36.4454 24.5862 34.7038 28.9929 31.5686 32.2646C28.4334 35.5363 24.1592 37.4073 19.6791 37.4692L27.5102 23.014H32.842L35.729 17.6843H22.3261L19.4391 23.014H24.4428L16.7299 37.2504C12.943 36.6247 9.47521 34.7058 6.89244 31.8066C4.30966 28.9074 2.76433 25.1991 2.50857 21.2868C2.2528 17.3744 3.3017 13.489 5.48414 10.2643C7.66657 7.03964 10.8537 4.66613 14.5256 3.53103L6.85772 17.6843L3.97075 23.014H17.3726L20.2596 17.6843H9.92507L17.9588 2.8582C18.4466 2.81529 18.9379 2.79198 19.4365 2.79198M19.4365 0.264893C23.2807 0.264893 27.0386 1.43007 30.2349 3.61309C33.4312 5.79611 35.9224 8.89891 37.3935 12.5291C38.8646 16.1594 39.2495 20.154 38.4996 24.0078C37.7496 27.8616 35.8985 31.4016 33.1802 34.18C30.462 36.9585 26.9987 38.8506 23.2284 39.6172C19.4581 40.3838 15.55 39.9903 11.9985 38.4866C8.44693 36.983 5.41136 34.4366 3.27565 31.1694C1.13993 27.9023 0 24.0612 0 20.1319C0.000824543 14.8631 2.04886 9.81035 5.69374 6.08474C9.33861 2.35913 14.2819 0.265735 19.4365 0.264893Z" fill="white"/>
<path d="M54.4213 0V39.734" stroke="#5C5C5C" stroke-miterlimit="10"/>
<path d="M101.297 17.919H105.288V3.69633H108.988V0.563164H97.5973V3.69633H101.297L101.297 17.919ZM89.4433 8.74414C89.8579 8.46971 92.4857 6.75426 92.4857 4.19379C92.4857 1.40817 90.0497 0.264893 87.6421 0.264893C83.2847 0.264893 82.5057 3.17395 82.5057 4.34425C82.5057 6.20911 84.1617 7.89966 84.3799 8.12376C81.4587 9.61511 81.3618 11.9276 81.3618 12.9475C81.3618 15.9312 83.5283 18.2189 87.2519 18.2189C88.7373 18.2189 90.3679 17.7712 91.3418 16.5765L92.3147 17.919H96.5031L93.8017 14.2884C95.1421 12.603 95.8651 10.4923 95.8459 8.32031H92.4868C92.5216 9.47913 92.2615 10.6273 91.7321 11.6527L89.4433 8.74414ZM89.5894 14.4378C89.3334 14.7602 89.0049 15.0146 88.6319 15.1791C88.2588 15.3437 87.8524 15.4136 87.4473 15.3829C85.9872 15.3829 85.1102 13.9165 85.1102 12.9215C85.1102 11.6283 85.7431 11.0318 86.2546 10.4601L89.5894 14.4378ZM87.5929 2.65158C89.0291 2.65158 89.2245 3.72175 89.2245 4.19379C89.2245 5.31271 88.3952 6.03375 87.398 6.85439C87.1793 6.63029 85.8654 5.23801 85.8654 4.34267C85.8535 4.11091 85.8906 3.87926 85.9742 3.66351C86.0578 3.44775 86.186 3.25297 86.35 3.09246C86.514 2.93194 86.7099 2.80947 86.9244 2.73338C87.1389 2.6573 87.3669 2.6294 87.5929 2.65158ZM69.9705 17.9195H79.5851V14.7864H73.9625V0.563164H69.9715L69.9705 17.9195Z" fill="#08558C"/>
<mask id="mask0_0_29" style="mask-type:luminance" maskUnits="userSpaceOnUse" x="69" y="20" width="93" height="21">
<path fill-rule="evenodd" clip-rule="evenodd" d="M157.45 39.6382V31.1658C157.45 30.1295 157.27 29.4214 156.91 29.0413C156.665 28.8297 156.38 28.6704 156.073 28.5726C155.766 28.4748 155.444 28.4405 155.124 28.4718C154.712 28.465 154.304 28.5557 153.932 28.7367C153.587 28.9074 153.284 29.1542 153.045 29.4593C152.801 29.7731 152.618 30.1312 152.505 30.5147C152.382 30.9335 152.321 31.369 152.325 31.8063V39.6382H148.722V20.9727H152.325V27.7503C152.469 27.4319 152.671 27.1443 152.92 26.9026C153.194 26.6296 153.507 26.4003 153.849 26.2223C154.219 26.0295 154.609 25.8802 155.012 25.7773C155.447 25.665 155.893 25.6092 156.342 25.611C157.581 25.5552 158.798 25.9653 159.763 26.7638C160.204 27.1626 160.552 27.6583 160.78 28.2138C161.008 28.7692 161.11 29.3702 161.079 29.9717V39.6382H157.45ZM147.668 34.6936C147.587 35.4553 147.357 36.1923 146.99 36.8605C146.638 37.4984 146.173 38.0636 145.618 38.5272C145.052 38.9975 144.41 39.3638 143.721 39.6101C142.977 39.875 142.195 40.0066 141.407 39.9989C140.541 40.0095 139.681 39.8543 138.872 39.5412C138.114 39.2425 137.436 38.7668 136.891 38.1521C136.309 37.4837 135.87 36.6983 135.602 35.8465C135.279 34.8099 135.125 33.7263 135.144 32.6386C135.122 31.5643 135.277 30.4939 135.602 29.4721C135.864 28.6545 136.305 27.9087 136.891 27.2915C137.457 26.7189 138.144 26.2865 138.899 26.0274C139.743 25.7402 140.628 25.5995 141.518 25.611C142.34 25.6012 143.158 25.7232 143.943 25.9723C144.64 26.1953 145.29 26.5536 145.855 27.0276C146.395 27.484 146.834 28.0521 147.143 28.6943C147.465 29.3725 147.653 30.1087 147.697 30.8612H144.069C144.009 30.2187 143.705 29.6257 143.224 29.2082C142.735 28.8036 142.121 28.5916 141.493 28.6106C141.124 28.6075 140.757 28.6736 140.412 28.8056C140.07 28.942 139.769 29.167 139.539 29.4583C139.262 29.8206 139.059 30.2365 138.944 30.681C138.783 31.2919 138.708 31.923 138.722 32.5554C138.722 34.0554 138.99 35.1664 139.525 35.8883C139.726 36.2086 140 36.4745 140.324 36.6632C140.647 36.852 141.01 36.958 141.382 36.9723C142.03 36.9903 142.664 36.785 143.183 36.3895C143.436 36.1856 143.644 35.9289 143.792 35.6366C143.94 35.3442 144.026 35.023 144.043 34.6942L147.668 34.6936ZM124.751 33.7496C124.757 34.6561 125.076 35.5314 125.651 36.2216C125.922 36.5245 126.255 36.7635 126.626 36.9217C126.996 37.08 127.397 37.1538 127.798 37.1381C128.346 37.1493 128.887 37.0102 129.364 36.7354C129.577 36.6177 129.763 36.4574 129.913 36.264C130.063 36.0706 130.173 35.8482 130.237 35.6102H133.95C133.593 36.9192 132.811 38.0652 131.733 38.8604C130.626 39.6361 129.307 40.0344 127.965 39.9984C123.42 39.9984 121.148 37.5171 121.148 32.5544C121.134 31.5818 121.285 30.6142 121.591 29.6935C121.865 28.8777 122.304 28.1301 122.88 27.4991C123.456 26.879 124.162 26.3996 124.944 26.0963C125.839 25.7573 126.789 25.5924 127.743 25.6099C129.848 25.6099 131.442 26.2859 132.523 27.6379C133.605 28.99 134.145 31.027 134.144 33.749L124.751 33.7496ZM130.431 31.4715C130.423 31.019 130.333 30.572 130.168 30.1523C130.027 29.7964 129.815 29.4745 129.546 29.2072C129.292 28.96 128.99 28.7708 128.659 28.652C128.33 28.5318 127.983 28.4705 127.634 28.4708C127.286 28.4675 126.94 28.5362 126.619 28.6727C126.298 28.8093 126.006 29.0109 125.763 29.2654C125.207 29.8629 124.886 30.6493 124.863 31.4736L130.431 31.4715ZM113.918 39.6382V24.4168H108.376V21.1941H123.339V24.4168H117.77V39.6382H113.918ZM108.154 39.6382V37.7193C107.716 38.4565 107.091 39.0581 106.344 39.4594C105.597 39.8608 104.757 40.0467 103.915 39.9973C103.274 40.0058 102.638 39.8833 102.044 39.6371C101.493 39.4044 100.998 39.054 100.59 38.6093C100.174 38.1494 99.8499 37.6117 99.6342 37.0258C99.3949 36.3685 99.2773 35.6714 99.2875 34.9702V25.9723H102.89V34.416C102.89 36.1198 103.656 36.9716 105.189 36.9712C105.581 36.9991 105.973 36.9347 106.335 36.7829C106.698 36.6311 107.022 36.3961 107.282 36.096C107.77 35.46 108.02 34.6672 107.988 33.8598V25.9723H111.564V39.6408L108.154 39.6382ZM94.2438 39.6382L94.2164 37.9714C93.8214 38.628 93.2599 39.163 92.5914 39.5197C91.923 39.8764 91.1726 40.0414 90.4198 39.9973C89.5992 40.0078 88.786 39.8376 88.0355 39.4983C87.3172 39.1671 86.6821 38.673 86.1784 38.0536C85.6328 37.371 85.2193 36.5885 84.9599 35.7479C84.6508 34.7514 84.501 33.7104 84.5162 32.6651C84.5063 31.7026 84.6323 30.7437 84.8905 29.818C85.1143 29.0088 85.4857 28.2501 85.9851 27.5818C86.4527 26.9631 87.0548 26.4643 87.7437 26.1249C88.4851 25.7717 89.2956 25.5959 90.1134 25.611C90.9088 25.5942 91.6957 25.7811 92.4024 26.1546C93.109 26.5282 93.713 27.0765 94.1593 27.7497V20.9727H97.7061V39.6382H94.2438ZM91.2516 37.0549C91.6719 37.0592 92.0874 36.9636 92.4652 36.7754C92.843 36.5873 93.1728 36.3119 93.4285 35.971C94.0386 35.162 94.3479 34.158 94.3014 33.1377C94.3014 30.1744 93.2945 28.6929 91.2807 28.6933C89.2123 28.6933 88.1779 30.1006 88.1776 32.9152C88.1308 33.9805 88.4333 35.0313 89.0369 35.901C89.2863 36.2631 89.6184 36.5575 90.0044 36.7587C90.3903 36.9598 90.8184 37.0612 91.2516 37.0549ZM69.9705 39.6382V21.1941H83.4936V24.4168H73.7111V28.3606H82.7162V31.6108H73.7111V36.3604H83.9357V39.6382H69.9705Z" fill="white"/>
</mask>
<g mask="url(#mask0_0_29)">
<path d="M161.08 20.9727H69.9705V39.9995H161.08V20.9727Z" fill="url(#paint0_linear_0_29)"/>
</g>
<defs>
<linearGradient id="paint0_linear_0_29" x1="69.9715" y1="22.7809" x2="90.8906" y2="-7.81069" gradientUnits="userSpaceOnUse">
<stop stop-color="#16BEF0"/>
<stop offset="1" stop-color="#86BD2A"/>
</linearGradient>
</defs>
</svg>
