<svg width="165" height="40" viewBox="0 0 165 40" fill="none" xmlns="http://www.w3.org/2000/svg">
<path fill-rule="evenodd" clip-rule="evenodd" d="M19.8629 2.79156C24.442 2.78753 28.8368 4.59526 32.0878 7.8201C35.3388 11.0449 37.182 15.425 37.2149 20.004C37.2479 24.583 35.4679 28.9891 32.2637 32.2604C29.0594 35.5317 24.6911 37.4025 20.1124 37.4644L28.1159 23.011H33.5652L36.5157 17.682H22.8177L19.8671 23.011H24.9811L17.0983 37.2456C13.228 36.62 9.68384 34.7013 7.0442 31.8025C4.40456 28.9037 2.8252 25.1959 2.5638 21.284C2.30241 17.3722 3.3744 13.4872 5.60489 10.2629C7.83538 7.03868 11.0927 4.66548 14.8454 3.53052L7.00872 17.682L4.05818 23.011H17.7551L20.7057 17.682H10.1436L18.3543 2.85778C18.8527 2.81487 19.3549 2.79156 19.8645 2.79156M19.8645 0.264801C23.7933 0.264801 27.6339 1.42983 30.9006 3.61257C34.1673 5.79531 36.7134 8.89772 38.2169 12.5275C39.7204 16.1572 40.1138 20.1513 39.3473 24.0047C38.5808 27.858 36.6889 31.3975 33.9108 34.1756C31.1327 36.9537 27.5932 38.8456 23.7399 39.6121C19.8865 40.3786 15.8924 39.9852 12.2627 38.4817C8.63292 36.9782 5.53051 34.4321 3.34777 31.1654C1.16503 27.8987 0 24.0581 0 20.1293C0.000842699 14.8612 2.09397 9.80904 5.81911 6.08391C9.54424 2.35877 14.5964 0.265644 19.8645 0.264801Z" fill="white"/>
<path d="M55.6196 0V39.729" stroke="white" stroke-opacity="0.5" stroke-miterlimit="10"/>
<path d="M103.528 17.9167H107.607V3.6958H111.388V0.563034H99.7461V3.6958H103.527L103.528 17.9167ZM91.4126 8.74297C91.8363 8.46857 94.522 6.75334 94.522 4.1932C94.522 1.40794 92.0323 0.264801 89.5718 0.264801C85.1184 0.264801 84.3223 3.17349 84.3223 4.34364C84.3223 6.20826 86.0147 7.89859 86.2377 8.12266C83.2522 9.61383 83.1532 11.9261 83.1532 12.9458C83.1532 15.9291 85.3674 18.2165 89.1729 18.2165C90.6911 18.2165 92.3576 17.7689 93.3529 16.5743L94.3472 17.9167H98.6279L95.867 14.2865C97.2369 12.6013 97.9758 10.4909 97.9562 8.31919H94.5231C94.5586 9.47786 94.2929 10.6259 93.7518 11.6511L91.4126 8.74297ZM91.5619 14.4359C91.3003 14.7583 90.9645 15.0126 90.5833 15.1771C90.2021 15.3417 89.7867 15.4116 89.3726 15.3809C87.8804 15.3809 86.9841 13.9146 86.9841 12.9198C86.9841 11.6268 87.6309 11.0303 88.1537 10.4587L91.5619 14.4359ZM89.5215 2.65119C90.9893 2.65119 91.189 3.72122 91.189 4.1932C91.189 5.31197 90.3415 6.03292 89.3223 6.85346C89.0987 6.62938 87.7559 5.23728 87.7559 4.34205C87.7437 4.11033 87.7817 3.87871 87.8671 3.66298C87.9526 3.44726 88.0836 3.2525 88.2512 3.09201C88.4188 2.93151 88.619 2.80905 88.8382 2.73298C89.0574 2.6569 89.2905 2.62901 89.5215 2.65119ZM71.511 17.9172H81.3373V14.7844H75.5909V0.563034H71.512L71.511 17.9172Z" fill="white"/>
<mask id="mask0_32_429" style="mask-type:luminance" maskUnits="userSpaceOnUse" x="71" y="20" width="94" height="21">
<path fill-rule="evenodd" clip-rule="evenodd" d="M160.917 39.6332V31.1619C160.917 30.1258 160.733 29.4177 160.365 29.0377C160.114 28.8261 159.823 28.6668 159.51 28.569C159.196 28.4712 158.866 28.437 158.539 28.4683C158.118 28.4614 157.701 28.5521 157.321 28.7331C156.969 28.9038 156.659 29.1506 156.414 29.4557C156.165 29.7693 155.978 30.1274 155.863 30.5109C155.737 30.9297 155.675 31.3651 155.679 31.8023V39.6332H151.997V20.9701H155.679V27.7468C155.826 27.4285 156.033 27.141 156.287 26.8992C156.567 26.6263 156.887 26.397 157.236 26.2191C157.614 26.0263 158.013 25.877 158.425 25.7741C158.869 25.6619 159.326 25.606 159.784 25.6078C161.051 25.552 162.295 25.9621 163.28 26.7605C163.731 27.1593 164.087 27.6549 164.32 28.2103C164.553 28.7657 164.657 29.3665 164.625 29.9679V39.6332H160.917ZM150.92 34.6893C150.837 35.4508 150.601 36.1878 150.226 36.8559C149.867 37.4937 149.391 38.0589 148.824 38.5224C148.245 38.9926 147.589 39.3589 146.885 39.6051C146.125 39.87 145.325 40.0015 144.521 39.9939C143.636 40.0045 142.757 39.8493 141.929 39.5362C141.155 39.2375 140.462 38.7619 139.905 38.1473C139.31 37.479 138.861 36.6937 138.588 35.842C138.258 34.8055 138.1 33.722 138.12 32.6345C138.097 31.5604 138.255 30.4901 138.588 29.4684C138.855 28.6509 139.306 27.9053 139.905 27.2881C140.483 26.7156 141.186 26.2832 141.957 26.0241C142.82 25.737 143.725 25.5963 144.634 25.6078C145.474 25.5981 146.31 25.72 147.112 25.9691C147.825 26.192 148.489 26.5503 149.066 27.0243C149.618 27.4806 150.067 28.0486 150.383 28.6908C150.712 29.3688 150.905 30.105 150.949 30.8573H147.241C147.179 30.2149 146.87 29.622 146.377 29.2046C145.878 28.8 145.25 28.588 144.608 28.6071C144.231 28.6039 143.856 28.67 143.503 28.802C143.154 28.9384 142.847 29.1633 142.611 29.4546C142.328 29.8169 142.121 30.2328 142.003 30.6772C141.839 31.288 141.762 31.919 141.776 32.5514C141.776 34.0512 142.05 35.162 142.597 35.8838C142.803 36.2041 143.083 36.4699 143.413 36.6586C143.744 36.8474 144.115 36.9534 144.495 36.9676C145.157 36.9856 145.805 36.7804 146.336 36.3849C146.594 36.181 146.807 35.9244 146.958 35.6321C147.109 35.3398 147.197 35.0186 147.214 34.6898L150.92 34.6893ZM127.498 33.7453C127.504 34.6518 127.83 35.527 128.418 36.217C128.695 36.5199 129.035 36.7589 129.414 36.9171C129.793 37.0754 130.201 37.1492 130.612 37.1334C131.172 37.1446 131.725 37.0056 132.213 36.7308C132.43 36.6131 132.62 36.4528 132.774 36.2594C132.927 36.0661 133.04 35.8437 133.105 35.6057H136.9C136.534 36.9146 135.735 38.0605 134.633 38.8556C133.502 39.6311 132.154 40.0294 130.782 39.9934C126.137 39.9934 123.815 37.5124 123.815 32.5503C123.802 31.5779 123.955 30.6104 124.268 29.6898C124.549 28.8741 124.997 28.1266 125.585 27.4957C126.174 26.8757 126.896 26.3963 127.695 26.093C128.61 25.7541 129.58 25.5892 130.556 25.6067C132.707 25.6067 134.336 26.2827 135.441 27.6345C136.547 28.9863 137.099 31.0231 137.097 33.7448L127.498 33.7453ZM133.303 31.4676C133.294 31.0152 133.203 30.5681 133.034 30.1485C132.89 29.7927 132.673 29.4708 132.398 29.2035C132.139 28.9564 131.83 28.7672 131.492 28.6484C131.155 28.5282 130.801 28.4669 130.444 28.4672C130.088 28.4639 129.735 28.5326 129.407 28.6692C129.078 28.8057 128.781 29.0073 128.532 29.2618C127.964 29.8591 127.636 30.6454 127.612 31.4697L133.303 31.4676ZM116.426 39.6332V24.4138H110.762V21.1915H126.055V24.4138H120.363V39.6332H116.426ZM110.535 39.6332V37.7145C110.088 38.4517 109.448 39.0532 108.685 39.4545C107.922 39.8558 107.064 40.0417 106.203 39.9923C105.548 40.0008 104.898 39.8783 104.291 39.6321C103.728 39.3994 103.221 39.0491 102.805 38.6045C102.38 38.1446 102.048 37.607 101.828 37.0211C101.583 36.3639 101.463 35.667 101.474 34.9658V25.9691H105.155V34.4117C105.155 36.1153 105.939 36.9669 107.505 36.9666C107.905 36.9944 108.306 36.93 108.677 36.7783C109.048 36.6265 109.378 36.3915 109.644 36.0915C110.142 35.4556 110.398 34.6629 110.365 33.8555V25.9691H114.02V39.6358L110.535 39.6332ZM96.3188 39.6332L96.2908 37.9667C95.8871 38.6231 95.3132 39.1581 94.6301 39.5147C93.9469 39.8714 93.1799 40.0364 92.4106 39.9923C91.5719 40.0028 90.7409 39.8326 89.9738 39.4933C89.2397 39.1622 88.5906 38.6682 88.0759 38.0488C87.5182 37.3663 87.0956 36.5839 86.8305 35.7434C86.5146 34.747 86.3615 33.7062 86.377 32.661C86.3669 31.6986 86.4957 30.7398 86.7595 29.8143C86.9883 29.0052 87.3678 28.2465 87.8783 27.5783C88.3561 26.9598 88.9715 26.461 89.6756 26.1216C90.4333 25.7685 91.2616 25.5927 92.0975 25.6078C92.9104 25.591 93.7146 25.7779 94.4368 26.1514C95.1591 26.5249 95.7764 27.0732 96.2325 27.7463V20.9701H99.8574V39.6332H96.3188ZM93.2608 37.0503C93.6903 37.0546 94.1149 36.9589 94.501 36.7708C94.8872 36.5827 95.2242 36.3073 95.4856 35.9665C96.1091 35.1576 96.4252 34.1537 96.3776 33.1335C96.3776 30.1706 95.3486 28.6893 93.2904 28.6897C91.1765 28.6897 90.1193 30.0968 90.119 32.911C90.0712 33.9762 90.3803 35.0269 90.9973 35.8965C91.2522 36.2586 91.5916 36.5529 91.986 36.7541C92.3805 36.9552 92.818 37.0565 93.2608 37.0503ZM71.511 39.6332V21.1915H85.3319V24.4138H75.334V28.357H84.5373V31.6069H75.334V36.3558H85.7838V39.6332H71.511Z" fill="white"/>
</mask>
<g mask="url(#mask0_32_429)">
<path d="M164.627 20.9701H71.511V39.9944H164.627V20.9701Z" fill="white"/>
</g>
</svg>
